<svg width="318" height="445" viewBox="0 0 318 445" fill="none" xmlns="http://www.w3.org/2000/svg">
<path fill-rule="evenodd" clip-rule="evenodd" d="M-1 5C-1 2.23858 1.23858 0 4 0H114.057C116.797 0 118.995 2.21599 119.352 4.93258C121.992 25.0273 139.185 40.5391 160 40.5391C180.815 40.5391 198.008 25.0273 200.648 4.93258C201.005 2.21599 203.203 0 205.943 0H313C315.761 0 318 2.23858 318 5V448C318 450.761 315.761 453 313 453H249C246.239 453 244.021 450.754 243.798 448.001C241.255 416.65 215.006 392 183 392H134C101.994 392 75.7447 416.65 73.2019 448.001C72.9786 450.754 70.7614 453 68 453H4C1.23858 453 -1 450.761 -1 448V5Z" fill="white"/>
</svg>
