<svg width="1920" height="196" viewBox="0 0 1920 196" fill="none" xmlns="http://www.w3.org/2000/svg">
<path fill-rule="evenodd" clip-rule="evenodd" d="M1030 0C1027.24 0 1025.02 2.24644 1024.81 4.99991C1022.26 38.5622 994.216 65 960 65C925.784 65 897.743 38.5622 895.189 4.99991C894.98 2.24644 892.761 0 890 0H5C2.23858 0 0 2.23857 0 5V452C0 454.761 2.23861 457 5.00004 457H1915C1917.76 457 1920 454.761 1920 452V5C1920 2.23858 1917.76 0 1915 0H1030ZM935 127C901.311 127 874 154.311 874 188C874 221.689 901.311 249 935 249H984C1017.69 249 1045 221.689 1045 188C1045 154.311 1017.69 127 984 127H935Z" fill="white"/>
</svg>
