<svg width="114" height="76" viewBox="0 0 114 76" fill="none" xmlns="http://www.w3.org/2000/svg">
<path fill-rule="evenodd" clip-rule="evenodd" d="M22.0729 51C27.5716 64.9426 41.3465 74.8678 57.5 74.8678C73.6535 74.8678 87.4284 64.9426 92.9271 51L94 51.4095C88.3357 65.772 74.1453 76 57.5 76C40.8547 76 26.6643 65.772 21 51.4095L22.0729 51Z" fill="#003333"/>
<path fill-rule="evenodd" clip-rule="evenodd" d="M57.5001 1.12483C41.1015 1.12483 27.1661 11.4847 22.0734 25.9994L21 25.6303C26.2475 10.6745 40.6056 0 57.5001 0C74.3956 0 88.7527 10.7316 94 25.6297L92.9271 26C87.8341 11.54 73.8978 1.12483 57.5001 1.12483Z" fill="#003333"/>
<path fill-rule="evenodd" clip-rule="evenodd" d="M89.5714 53.898C89.8396 52.8527 90.1036 51.8234 90.3231 50.7969L90.7347 51.1311C90.5088 52.1878 90.2384 53.2418 89.972 54.2798L89.9703 54.2867L89.5714 53.898Z" fill="#003333"/>
<path fill-rule="evenodd" clip-rule="evenodd" d="M27.9992 58.8004C27.5643 58.1788 27.1493 57.5427 26.7551 56.8931L27.2443 56.6133C27.6323 57.2527 28.0408 57.8788 28.4689 58.4907L27.9992 58.8004ZM87.2449 58.7816C86.8373 59.3681 86.4117 59.9418 85.9688 60.502L85.5185 60.1663C85.9543 59.6151 86.3732 59.0505 86.7743 58.4733L87.2449 58.7816ZM34.1527 65.541C32.9839 64.5521 31.8814 63.4904 30.8524 62.3631L31.2773 61.9975C32.2901 63.1071 33.3753 64.1521 34.5257 65.1254L34.1527 65.541ZM83.1045 63.7001C82.0844 64.7078 81.0011 65.655 79.8606 66.536L79.5072 66.1046C80.6295 65.2376 81.6957 64.3054 82.6996 63.3137L83.1045 63.7001ZM41.8762 70.5306C40.4793 69.8641 39.134 69.1115 37.8471 68.2799L38.1616 67.821C39.4281 68.6394 40.7521 69.38 42.1266 70.0358L41.8762 70.5306ZM76.2853 68.9672C75.0485 69.7031 73.7616 70.3681 72.4307 70.9562L72.1956 70.4545C73.5052 69.8757 74.7715 69.2214 75.9886 68.4972L76.2853 68.9672ZM50.6664 73.4102C49.1308 73.1172 47.6311 72.7287 46.1737 72.2512L46.3552 71.7289C47.7892 72.1987 49.2649 72.581 50.7759 72.8694L50.6664 73.4102ZM68.3541 72.4714C66.9761 72.8913 65.5618 73.2326 64.1168 73.4898L64.0145 72.9476C65.4364 72.6945 66.8281 72.3587 68.1841 71.9455L68.3541 72.4714ZM57.6008 74.0623C56.8197 74.0623 56.0447 74.038 55.2764 73.9902L55.3127 73.4401C56.0689 73.4871 56.8318 73.511 57.6008 73.511C58.3224 73.511 59.0388 73.49 59.7494 73.4487L59.7834 73.999C59.0614 74.041 58.3337 74.0623 57.6008 74.0623Z" fill="#003333"/>
<path fill-rule="evenodd" clip-rule="evenodd" d="M58.0013 2.48792C57.2633 2.48792 56.5306 2.50994 55.804 2.55332L55.769 2.0059C56.5073 1.96182 57.2516 1.93945 58.0013 1.93945C58.8135 1.93945 59.6195 1.96581 60.4184 2.01767L60.3804 2.56491C59.5941 2.51386 58.8008 2.48792 58.0013 2.48792ZM51.4443 3.07875C49.9917 3.34394 48.5707 3.69548 47.1874 4.12749L47.013 3.60559C48.4188 3.16656 49.8628 2.8093 51.339 2.53982L51.4443 3.07875ZM69.6767 4.41432C68.1921 3.90769 66.662 3.49476 65.0941 3.18301L65.2084 2.64579C66.8018 2.96261 68.3568 3.38227 69.8656 3.89714L69.6767 4.41432ZM43.1003 5.68424C41.7678 6.28766 40.481 6.96922 39.2462 7.72259L38.9434 7.25878C40.198 6.49331 41.5055 5.80076 42.8596 5.18758L43.1003 5.68424ZM78.1167 8.61183C76.8201 7.73524 75.4598 6.94071 74.0438 6.23623L74.3035 5.74857C75.7423 6.46442 77.1245 7.27175 78.4419 8.16239L78.1167 8.61183ZM35.6837 10.208C34.5496 11.1077 33.475 12.074 32.4664 13.1004L32.055 12.7227C33.0797 11.6799 34.1715 10.6981 35.3237 9.78405L35.6837 10.208ZM85.0979 14.83C84.0848 13.6487 82.9905 12.5341 81.8232 11.4943L82.2077 11.091C83.3936 12.1473 84.5054 13.2797 85.5347 14.48L85.0979 14.83ZM29.6439 16.3551C29.2093 16.9248 28.7927 17.5078 28.3951 18.1033L27.9184 17.8059C28.3224 17.2008 28.7456 16.6084 29.1873 16.0296L29.6439 16.3551ZM89.0707 20.5517C88.697 19.8738 88.3 19.2094 87.8808 18.5595L88.3623 18.2693C88.7882 18.9297 89.1916 19.6049 89.5714 20.2937L89.0707 20.5517Z" fill="#003333"/>
<path fill-rule="evenodd" clip-rule="evenodd" d="M90.6156 26C90.4109 24.7302 90.206 23.5574 90 22.3778L90.3801 22L90.3805 22.0022C90.5862 23.1796 90.793 24.3638 91 25.6474L90.6156 26Z" fill="#003333"/>
<path d="M75.9135 20.8902C75.2645 20.1434 74.6155 19.3966 73.9124 18.5875C72.7225 17.2184 71.8031 17.1562 70.3969 18.2764C69.0989 19.3343 67.8009 20.3923 66.5029 21.5125C66.2325 21.7614 66.0702 21.7614 65.7457 21.5747C64.5558 20.9524 63.4201 20.4545 62.2302 19.8944C61.9598 19.77 61.8516 19.6455 61.7976 19.3343C61.5812 17.5918 61.2567 15.7871 61.0404 14.0446C60.8781 12.6755 60.4455 11.6798 59.2556 11.2441C57.7413 11.2441 56.2269 11.2441 54.7125 11.2441C53.5227 11.6798 53.09 12.7377 52.9278 14.0446C52.7114 15.7871 52.441 17.5918 52.1706 19.3343C52.1165 19.6455 52.0083 19.77 51.7379 19.8944C50.5481 20.4545 49.3582 21.0146 48.1684 21.5747C47.898 21.6992 47.6816 21.6992 47.4653 21.5125C46.1132 20.3923 44.7611 19.2721 43.409 18.1519C42.2191 17.1562 41.1915 17.2807 40.1639 18.4631C39.4608 19.2721 38.7577 20.0811 38.0546 20.8902C37.0271 22.0726 36.973 23.255 37.7842 24.5619C38.1087 25.0597 38.4332 25.5576 38.7577 26.1177C39.569 26.1177 40.3803 26.1177 41.1915 26.1177C40.5966 25.1842 40.0558 24.2507 39.4609 23.3794C39.1904 23.0061 39.2445 22.7571 39.5149 22.446C40.218 21.6992 40.867 20.9524 41.516 20.1434C41.8405 19.77 42.0569 19.77 42.3814 20.0811C43.8957 21.3258 45.4101 22.5704 46.9244 23.8773C47.4653 24.3752 47.952 24.3752 48.547 23.9395C49.8991 22.9438 51.3593 22.3215 52.9278 21.8236C53.6849 21.5747 53.9013 21.3258 54.0094 20.4545C54.334 18.3386 54.6044 16.2227 54.9289 14.1068C54.983 13.609 55.1452 13.4223 55.5779 13.4845C56.5514 13.5467 57.4708 13.5467 58.4443 13.4845C58.8229 13.4845 58.9311 13.609 58.9852 14.0446C59.2556 16.2227 59.6342 18.3386 59.9046 20.5168C60.0128 21.2635 60.3373 21.6992 60.9863 21.8859C62.5547 22.3215 64.0691 23.0061 65.4212 24.0018C66.0161 24.4374 66.5029 24.3752 67.0437 23.8773C68.5581 22.5704 70.1265 21.3258 71.6409 20.0811C71.9654 19.8322 72.1276 19.8322 72.398 20.1434C73.1011 20.9524 73.8042 21.7614 74.4532 22.5704C74.5614 22.6949 74.6155 22.8193 74.7236 22.9438C74.6155 23.1305 74.5614 23.255 74.4532 23.3794C73.8583 24.3752 73.2093 25.3709 72.6144 26.3666C73.4797 26.3044 74.345 26.1177 75.2645 26.0554C75.5349 25.6198 75.8594 25.1219 76.1298 24.6863C77.0493 23.255 76.9952 22.1348 75.9135 20.8902Z" fill="#669933"/>
<path d="M76.2274 51.8983C76.0104 51.5089 75.7934 51.1843 75.5764 50.7949C74.7627 50.7949 73.9491 50.7949 73.1354 50.7949C73.6236 51.5738 74.1118 52.4175 74.6 53.1963C74.817 53.5858 74.817 53.7805 74.5457 54.105C73.8406 54.9487 73.1354 55.7276 72.4302 56.6362C72.159 56.9607 71.9962 56.9607 71.725 56.7011C70.2061 55.3381 68.6331 54.0401 67.06 52.6771C66.5175 52.2228 66.0293 52.1579 65.4326 52.6122C64.0765 53.6507 62.5576 54.3646 60.9845 54.8189C60.3336 55.0136 60.0081 55.468 59.9539 56.2468C59.6827 58.4535 59.3572 60.6602 59.0317 62.8669C58.9775 63.3861 58.8147 63.5809 58.3265 63.5809C57.3501 63.516 56.3737 63.5809 55.3973 63.5809C55.1261 63.5809 55.0176 63.516 54.9633 63.1265C54.6379 60.79 54.3124 58.5184 54.0412 56.1819C53.9327 55.4679 53.6614 55.0136 53.0105 54.8189C51.3832 54.3646 49.8643 53.5858 48.454 52.5473C47.9115 52.1579 47.4775 52.2228 46.9893 52.6122C45.4162 53.9752 43.8431 55.2732 42.3243 56.6362C41.9988 56.8958 41.8361 56.8958 41.5648 56.5713C40.9139 55.7276 40.2087 54.8838 39.4493 54.0401C39.2323 53.7805 39.2323 53.5858 39.395 53.2612C39.829 52.5473 40.263 51.7685 40.6969 51.0546C39.9375 50.9247 39.1781 50.8598 38.4186 50.7949C38.2017 51.1843 37.9847 51.5089 37.7677 51.8983C36.954 53.2613 37.0625 54.4944 38.0389 55.6627C38.7984 56.5713 39.5035 57.4799 40.263 58.3237C41.2394 59.4919 42.27 59.5568 43.3549 58.6482C44.711 57.4799 46.1214 56.3117 47.4776 55.0785C47.7488 54.8189 47.9115 54.8189 48.237 55.0136C49.3219 55.5978 50.461 56.1819 51.6002 56.7011C52.0884 56.8958 52.2511 57.1554 52.3053 57.7396C52.5223 59.5569 52.7935 61.3092 53.0105 63.1265C53.1732 64.4895 53.6615 65.463 54.7464 65.9174C56.2652 65.9174 57.7841 65.9174 59.3029 65.9174C60.4963 65.463 60.9303 64.3597 61.093 62.9967C61.31 61.1145 61.5812 59.2972 61.8525 57.4799C61.9067 57.1554 62.0152 57.0256 62.2864 56.8958C63.4798 56.3117 64.6732 55.7925 65.8123 55.1434C66.0836 55.0136 66.3005 54.9487 66.5717 55.2083C67.9279 56.3766 69.284 57.5449 70.6401 58.7131C71.7792 59.6867 72.8099 59.5569 73.8406 58.3886C74.5458 57.5449 75.3052 56.6362 76.0104 55.7925C76.9325 54.4944 77.041 53.2613 76.2274 51.8983Z" fill="#669933"/>
<path d="M7.21492 42.2308V36.1203L4.93456 40.6706H3.99998L1.71962 36.1203V42.2308H0V33H1.84423L4.46104 38.2524L7.10277 33H8.93454V42.2308H7.21492Z" fill="#003333"/>
<path d="M10.6803 35.4182H12.3376V37.5764H13.4341C13.7913 37.5764 14.1195 37.6284 14.4186 37.7324C14.7259 37.8277 14.9918 37.9751 15.2161 38.1744C15.4404 38.3651 15.6148 38.6078 15.7394 38.9025C15.8723 39.1885 15.9388 39.5179 15.9388 39.8906C15.9388 40.2719 15.8765 40.61 15.7519 40.9047C15.6273 41.1907 15.4528 41.4334 15.2285 41.6327C15.0125 41.8321 14.755 41.9837 14.4559 42.0878C14.1652 42.1831 13.8453 42.2308 13.4964 42.2308H10.6803V35.4182ZM16.6491 35.4182H18.2939V42.2308H16.6491V35.4182ZM13.322 40.8657C13.6044 40.8657 13.8287 40.7876 13.9949 40.6316C14.161 40.467 14.2441 40.2286 14.2441 39.9166C14.2441 39.6046 14.1569 39.3662 13.9824 39.2015C13.808 39.0282 13.5878 38.9415 13.322 38.9415H12.3376V40.8657H13.322Z" fill="#003333"/>
<path d="M28.581 42.2308H26.9237V36.9263H24.5187V42.2308H22.8614V35.4182H28.581V42.2308Z" fill="#003333"/>
<path d="M34.0512 42.3608C33.5361 42.3608 33.0875 42.2438 32.7054 42.0098C32.3232 41.7671 32.0242 41.442 31.8082 41.0347V45H30.1384V35.4182H31.5963V36.5883C31.8373 36.1896 32.1488 35.8776 32.5309 35.6522C32.9131 35.4182 33.3533 35.3012 33.8518 35.3012C34.2921 35.3012 34.6991 35.3965 35.073 35.5872C35.4468 35.7692 35.7666 36.0206 36.0325 36.3413C36.3066 36.6533 36.5184 37.026 36.668 37.4594C36.8258 37.8841 36.9047 38.3348 36.9047 38.8115C36.9047 39.3055 36.8341 39.7692 36.6929 40.2026C36.5517 40.636 36.3523 41.013 36.0948 41.3337C35.8455 41.6544 35.5465 41.9057 35.1976 42.0878C34.8487 42.2698 34.4665 42.3608 34.0512 42.3608ZM33.4904 40.8787C33.7396 40.8787 33.9681 40.8223 34.1758 40.7096C34.3918 40.597 34.5745 40.4453 34.7241 40.2546C34.8736 40.0639 34.9899 39.8429 35.073 39.5915C35.156 39.3402 35.1976 39.0802 35.1976 38.8115C35.1976 38.5255 35.1519 38.2611 35.0605 38.0184C34.9691 37.7671 34.8404 37.5504 34.6742 37.3684C34.5164 37.1863 34.3253 37.0433 34.101 36.9393C33.885 36.8353 33.6483 36.7833 33.3907 36.7833C33.2329 36.7833 33.0709 36.8137 32.9047 36.8743C32.7386 36.9263 32.5849 37.0043 32.4437 37.1083C32.3025 37.2124 32.1737 37.3337 32.0574 37.4724C31.9494 37.6111 31.8663 37.7627 31.8082 37.9274V39.5265C31.9577 39.9166 32.1862 40.2416 32.4935 40.5016C32.8009 40.753 33.1332 40.8787 33.4904 40.8787Z" fill="#003333"/>
<path d="M41.0389 42.3608C40.5072 42.3608 40.0295 42.2654 39.6058 42.0748C39.1822 41.8841 38.8208 41.6284 38.5217 41.3077C38.231 40.9783 38.0067 40.6013 37.8488 40.1766C37.691 39.7519 37.6121 39.3055 37.6121 38.8375C37.6121 38.3608 37.691 37.9101 37.8488 37.4854C38.0067 37.0607 38.231 36.688 38.5217 36.3673C38.8208 36.0379 39.1822 35.7779 39.6058 35.5872C40.0295 35.3965 40.5072 35.3012 41.0389 35.3012C41.5705 35.3012 42.044 35.3965 42.4594 35.5872C42.8831 35.7779 43.2403 36.0379 43.5311 36.3673C43.8301 36.688 44.0586 37.0607 44.2164 37.4854C44.3743 37.9101 44.4532 38.3608 44.4532 38.8375C44.4532 39.3055 44.3743 39.7519 44.2164 40.1766C44.0586 40.6013 43.8343 40.9783 43.5435 41.3077C43.2528 41.6284 42.8955 41.8841 42.4719 42.0748C42.0482 42.2654 41.5705 42.3608 41.0389 42.3608ZM39.3317 38.8375C39.3317 39.1408 39.3732 39.4182 39.4563 39.6696C39.5477 39.9122 39.6682 40.1246 39.8177 40.3066C39.9755 40.4886 40.1583 40.6316 40.366 40.7356C40.5737 40.831 40.798 40.8787 41.0389 40.8787C41.2798 40.8787 41.5041 40.831 41.7118 40.7356C41.9194 40.6316 42.098 40.4886 42.2476 40.3066C42.4054 40.1246 42.5259 39.9079 42.6089 39.6566C42.7003 39.4052 42.746 39.1278 42.746 38.8245C42.746 38.5298 42.7003 38.2568 42.6089 38.0054C42.5259 37.7541 42.4054 37.5374 42.2476 37.3554C42.098 37.1733 41.9194 37.0347 41.7118 36.9393C41.5041 36.8353 41.2798 36.7833 41.0389 36.7833C40.798 36.7833 40.5737 36.8353 40.366 36.9393C40.1583 37.0433 39.9755 37.1863 39.8177 37.3684C39.6682 37.5504 39.5477 37.7671 39.4563 38.0184C39.3732 38.2698 39.3317 38.5428 39.3317 38.8375Z" fill="#003333"/>
<path d="M47.2625 39.7476L50.3528 35.4182H51.5864V42.2308H49.9291V38.0184L46.8762 42.2308H45.6051V35.4182H47.2625V39.7476Z" fill="#003333"/>
<path d="M52.8007 36.1593C53.1247 35.8646 53.4777 35.6479 53.8599 35.5092C54.242 35.3705 54.6325 35.3012 55.0312 35.3012C55.322 35.3012 55.5961 35.3402 55.8536 35.4182C56.1112 35.4875 56.3355 35.5959 56.5265 35.7432C56.7259 35.8906 56.8796 36.0769 56.9876 36.3023C57.1039 36.519 57.162 36.7703 57.162 37.0563C57.162 37.4204 57.0665 37.7411 56.8754 38.0184C56.6927 38.2871 56.431 38.4561 56.0904 38.5255C56.5639 38.6208 56.9211 38.8245 57.162 39.1365C57.403 39.4399 57.5234 39.8212 57.5234 40.2806C57.5234 40.5926 57.457 40.8787 57.324 41.1387C57.1994 41.39 57.025 41.6067 56.8007 41.7887C56.5764 41.9707 56.3064 42.1138 55.9907 42.2178C55.6833 42.3131 55.3469 42.3608 54.9814 42.3608C54.4746 42.3608 54.0136 42.2741 53.5982 42.1008C53.1828 41.9274 52.8464 41.6847 52.5889 41.3727L53.3864 40.2546C53.5525 40.4713 53.756 40.636 53.9969 40.7486C54.2462 40.8527 54.5162 40.9047 54.8069 40.9047C55.1558 40.9047 55.4258 40.831 55.6169 40.6836C55.8163 40.5363 55.9159 40.3239 55.9159 40.0466C55.9159 39.7346 55.8038 39.4962 55.5795 39.3315C55.3635 39.1582 54.9938 39.0715 54.4705 39.0715H53.9596V38.0704H54.458C54.8568 38.0704 55.16 37.9924 55.3677 37.8364C55.5836 37.6717 55.6916 37.4637 55.6916 37.2124C55.6916 36.9957 55.6127 36.831 55.4549 36.7183C55.3054 36.6056 55.106 36.5493 54.8568 36.5493C54.6408 36.5493 54.4123 36.6013 54.1714 36.7053C53.9305 36.8007 53.7103 36.9437 53.511 37.1343L52.8007 36.1593Z" fill="#003333"/>
<path d="M62.5256 35.4182C62.7665 35.4182 62.9867 35.4659 63.1861 35.5612C63.3854 35.6479 63.5557 35.7692 63.697 35.9252C63.8465 36.0813 63.9586 36.2633 64.0334 36.4713C64.1165 36.6793 64.158 36.9003 64.158 37.1343C64.158 37.429 64.0833 37.7281 63.9337 38.0314C63.7842 38.3261 63.5391 38.5471 63.1985 38.6945C63.5807 38.8072 63.8797 39.0022 64.0957 39.2795C64.32 39.5482 64.4322 39.9166 64.4322 40.3846C64.4322 41.0087 64.2245 41.4724 63.8091 41.7757C63.3937 42.0791 62.8205 42.2308 62.0895 42.2308H58.6627V35.4182H62.5256ZM61.7406 38.2654C61.9732 38.2654 62.1601 38.1961 62.3013 38.0574C62.4426 37.9187 62.5132 37.7194 62.5132 37.4594C62.5132 37.2427 62.4509 37.0607 62.3263 36.9133C62.2099 36.7573 62.0313 36.6793 61.7904 36.6793H60.32V38.2654H61.7406ZM61.9649 40.9697C62.2058 40.9697 62.3969 40.8873 62.5381 40.7226C62.6876 40.558 62.7624 40.3586 62.7624 40.1246C62.7624 39.8819 62.6918 39.6826 62.5506 39.5265C62.4093 39.3619 62.2183 39.2795 61.9773 39.2795H60.32V40.9697H61.9649Z" fill="#003333"/>
<path d="M68.5772 42.3608C68.0455 42.3608 67.5679 42.2654 67.1442 42.0748C66.7205 41.8841 66.3591 41.6284 66.0601 41.3077C65.7693 40.9783 65.545 40.6013 65.3872 40.1766C65.2293 39.7519 65.1504 39.3055 65.1504 38.8375C65.1504 38.3608 65.2293 37.9101 65.3872 37.4854C65.545 37.0607 65.7693 36.688 66.0601 36.3673C66.3591 36.0379 66.7205 35.7779 67.1442 35.5872C67.5679 35.3965 68.0455 35.3012 68.5772 35.3012C69.1089 35.3012 69.5824 35.3965 69.9977 35.5872C70.4214 35.7779 70.7786 36.0379 71.0694 36.3673C71.3685 36.688 71.5969 37.0607 71.7548 37.4854C71.9126 37.9101 71.9915 38.3608 71.9915 38.8375C71.9915 39.3055 71.9126 39.7519 71.7548 40.1766C71.5969 40.6013 71.3726 40.9783 71.0819 41.3077C70.7911 41.6284 70.4339 41.8841 70.0102 42.0748C69.5865 42.2654 69.1089 42.3608 68.5772 42.3608ZM66.87 38.8375C66.87 39.1408 66.9116 39.4182 66.9947 39.6696C67.086 39.9122 67.2065 40.1246 67.356 40.3066C67.5139 40.4886 67.6966 40.6316 67.9043 40.7356C68.112 40.831 68.3363 40.8787 68.5772 40.8787C68.8181 40.8787 69.0424 40.831 69.2501 40.7356C69.4578 40.6316 69.6364 40.4886 69.7859 40.3066C69.9438 40.1246 70.0642 39.9079 70.1473 39.6566C70.2387 39.4052 70.2844 39.1278 70.2844 38.8245C70.2844 38.5298 70.2387 38.2568 70.1473 38.0054C70.0642 37.7541 69.9438 37.5374 69.7859 37.3554C69.6364 37.1733 69.4578 37.0347 69.2501 36.9393C69.0424 36.8353 68.8181 36.7833 68.5772 36.7833C68.3363 36.7833 68.112 36.8353 67.9043 36.9393C67.6966 37.0433 67.5139 37.1863 67.356 37.3684C67.2065 37.5504 67.086 37.7671 66.9947 38.0184C66.9116 38.2698 66.87 38.5428 66.87 38.8375Z" fill="#003333"/>
<path d="M72.2655 40.7226H72.6144C72.8137 40.6966 72.9757 40.6316 73.1003 40.5276C73.2333 40.415 73.3454 40.2416 73.4368 40.0076C73.5365 39.7649 73.6154 39.4442 73.6736 39.0455C73.74 38.6468 73.8065 38.1398 73.8729 37.5244L74.0972 35.4182H78.6704V40.7226H79.5427V44.1809H78.0598V42.2308H73.6985V44.1809H72.2655V40.7226ZM77.0131 40.7226V36.8743H75.5552L75.4306 37.9014C75.3475 38.6035 75.2436 39.1755 75.119 39.6176C75.0027 40.0596 74.8532 40.428 74.6704 40.7226H77.0131Z" fill="#003333"/>
<path d="M82.3577 39.7476L85.448 35.4182H86.6817V42.2308H85.0244V38.0184L81.9714 42.2308H80.7004V35.4182H82.3577V39.7476Z" fill="#003333"/>
<path d="M91.385 42.2308H89.7277V36.9263H87.6841V35.4182H93.4162V36.9263H91.385V42.2308Z" fill="#003333"/>
<path d="M97.1015 42.3608C96.5782 42.3608 96.1046 42.2698 95.681 42.0878C95.2573 41.8971 94.8959 41.6414 94.5969 41.3207C94.2978 41 94.0652 40.6273 93.899 40.2026C93.7412 39.7779 93.6623 39.3315 93.6623 38.8635C93.6623 38.3781 93.7412 37.9231 93.899 37.4984C94.0569 37.065 94.2853 36.688 94.5844 36.3673C94.8834 36.0379 95.2448 35.7779 95.6685 35.5872C96.1005 35.3965 96.5823 35.3012 97.114 35.3012C97.6456 35.3012 98.1192 35.3965 98.5345 35.5872C98.9582 35.7779 99.3154 36.0336 99.6062 36.3543C99.9052 36.675 100.13 37.0477 100.279 37.4724C100.437 37.8971 100.516 38.3391 100.516 38.7985C100.516 38.9112 100.512 39.0195 100.503 39.1235C100.503 39.2275 100.495 39.3142 100.478 39.3835H95.4317C95.4567 39.6522 95.519 39.8906 95.6187 40.0986C95.7183 40.3066 95.8471 40.4843 96.0049 40.6316C96.1628 40.779 96.3414 40.8917 96.5408 40.9697C96.7402 41.0477 96.9478 41.0867 97.1638 41.0867C97.4961 41.0867 97.8076 41.0043 98.0984 40.8397C98.3975 40.6663 98.601 40.441 98.709 40.1636L100.142 40.5796C99.9011 41.0997 99.5148 41.5287 98.9831 41.8667C98.4598 42.1961 97.8326 42.3608 97.1015 42.3608ZM98.7962 38.2524C98.7547 37.7411 98.5719 37.3337 98.2479 37.0303C97.9322 36.7183 97.546 36.5623 97.089 36.5623C96.8647 36.5623 96.6529 36.6056 96.4535 36.6923C96.2625 36.7703 96.0922 36.883 95.9426 37.0303C95.7931 37.1777 95.6685 37.3554 95.5688 37.5634C95.4774 37.7714 95.4234 38.0011 95.4068 38.2524H98.7962Z" fill="#003333"/>
<path d="M100.751 40.7486C100.992 40.7313 101.187 40.6793 101.337 40.5926C101.494 40.506 101.623 40.3456 101.723 40.1116C101.831 39.8776 101.918 39.5569 101.985 39.1495C102.059 38.7335 102.134 38.1918 102.209 37.5244L102.433 35.4182H107.006V42.2308H105.349V36.8743H103.891L103.766 37.9014C103.667 38.7595 103.546 39.4702 103.405 40.0336C103.264 40.5883 103.081 41.0303 102.857 41.3597C102.641 41.6891 102.371 41.9231 102.047 42.0618C101.723 42.1918 101.324 42.2654 100.851 42.2828L100.751 40.7486Z" fill="#003333"/>
<path d="M108.579 35.4182H110.237V37.5764H111.508C111.857 37.5764 112.181 37.6284 112.48 37.7324C112.787 37.8277 113.053 37.9751 113.277 38.1744C113.502 38.3651 113.676 38.6078 113.801 38.9025C113.934 39.1885 114 39.5179 114 39.8906C114 40.2719 113.938 40.61 113.813 40.9047C113.688 41.1907 113.518 41.4334 113.302 41.6327C113.086 41.8321 112.829 41.9837 112.53 42.0878C112.239 42.1831 111.919 42.2308 111.57 42.2308H108.579V35.4182ZM111.383 40.8657C111.674 40.8657 111.902 40.7876 112.069 40.6316C112.235 40.467 112.318 40.2286 112.318 39.9166C112.318 39.6046 112.231 39.3662 112.056 39.2015C111.882 39.0282 111.661 38.9415 111.396 38.9415H110.237V40.8657H111.383Z" fill="#003333"/>
<path d="M112 25.5C112 25.2239 111.776 25 111.5 25H5.5C5.22386 25 5 25.2239 5 25.5C5 25.7761 5.22386 26 5.5 26H111.5C111.776 26 112 25.7761 112 25.5Z" fill="#003333"/>
<path d="M112 51.5C112 51.2239 111.776 51 111.5 51H5.5C5.22386 51 5 51.2239 5 51.5C5 51.7761 5.22386 52 5.5 52H111.5C111.776 52 112 51.7761 112 51.5Z" fill="#003333"/>
</svg>
