<svg width="141" height="87" viewBox="0 0 141 87" fill="none" xmlns="http://www.w3.org/2000/svg">
<rect x="43" y="5" width="54" height="1" fill="#669933"/>
<rect x="43" y="58" width="54" height="1" fill="#669933"/>
<rect x="43" y="8" width="54" height="1" fill="#669933"/>
<rect x="43" y="61" width="54" height="1" fill="#669933"/>
<rect x="43" y="11" width="54" height="1" fill="#669933"/>
<rect x="43" y="64" width="54" height="1" fill="#669933"/>
<rect x="43" y="14" width="54" height="1" fill="#669933"/>
<rect x="45" y="67" width="50" height="1" fill="#669933"/>
<rect x="49" y="70" width="42" height="1" fill="#669933"/>
<rect x="53" y="73" width="33" height="1" fill="#669933"/>
<rect x="58" y="76" width="23" height="1" fill="#669933"/>
<rect x="63" y="79" width="14" height="1" fill="#669933"/>
<path d="M102.923 5C102.923 2.23858 100.684 0 97.9226 0H42.3998C39.6384 0 37.3998 2.23858 37.3998 5V14.0099C37.3998 16.7713 35.1613 19.0099 32.3998 19.0099H25.495C25.2216 19.0099 25 19.2315 25 19.5049C25 19.7784 25.2216 20 25.495 20H37.3998H39.0261H101.296H102.923H115.505C115.778 20 116 19.7784 116 19.5049C116 19.2315 115.778 19.0099 115.505 19.0099H107.923C105.161 19.0099 102.923 16.7713 102.923 14.0099V5ZM44.0261 19.0099C41.2647 19.0099 39.0261 16.7713 39.0261 14.0099V6.58418C39.0261 3.82275 41.2646 1.58418 44.0261 1.58418H96.2964C99.0578 1.58418 101.296 3.82275 101.296 6.58418V14.0099C101.296 16.7713 99.0578 19.0099 96.2964 19.0099H44.0261Z" fill="#003333"/>
<path d="M100.514 54H38.8823H37.2727H25.501C25.2243 54 25 54.2243 25 54.501C25 54.7777 25.2243 55.002 25.501 55.002H32.2727C35.0341 55.002 37.2727 57.2406 37.2727 60.002V65.4707C37.2727 67.2596 38.2285 68.9123 39.7791 69.8045L67.1711 85.5652C68.7149 86.4535 70.6145 86.4535 72.1583 85.5652L99.5502 69.8045C101.101 68.9123 102.057 67.2596 102.057 65.4707V60.002C102.057 57.2406 104.295 55.002 107.057 55.002H114.499C114.776 55.002 115 54.7777 115 54.501C115 54.2243 114.776 54 114.499 54H102.057H100.514ZM72.2217 83.7644C70.6799 84.6511 68.7831 84.652 67.2405 83.7668L41.3937 68.9351C39.8403 68.0436 38.8823 66.3894 38.8823 64.5983V60.0688C38.8823 57.3074 41.1208 55.0688 43.8823 55.0688H95.5142C98.2756 55.0688 100.514 57.3074 100.514 60.0688V64.6015C100.514 66.3908 99.558 68.0438 98.0068 68.9359L72.2217 83.7644Z" fill="#003333"/>
<path d="M6.29088 32.7416V34.2797H0V25.2542H6.17604V26.7924H1.76094V28.9661H5.5763V30.3899H1.76094V32.7416H6.29088Z" fill="#003333"/>
<path d="M11.4037 27.6187C11.6504 27.6187 11.8759 27.6653 12.08 27.7585C12.2842 27.8432 12.4586 27.9619 12.6032 28.1144C12.7563 28.267 12.8712 28.4449 12.9477 28.6483C13.0328 28.8517 13.0753 29.0678 13.0753 29.2967C13.0753 29.5848 12.9988 29.8772 12.8456 30.1738C12.6925 30.4619 12.4416 30.678 12.0928 30.8221C12.4841 30.9323 12.7903 31.1229 13.0115 31.3941C13.2412 31.6568 13.3561 32.017 13.3561 32.4746C13.3561 33.0848 13.1434 33.5382 12.718 33.8348C12.2927 34.1314 11.7057 34.2797 10.9571 34.2797H7.44799V27.6187H11.4037ZM10.5998 30.4026C10.838 30.4026 11.0294 30.3348 11.174 30.1992C11.3186 30.0636 11.391 29.8687 11.391 29.6145C11.391 29.4026 11.3272 29.2246 11.1996 29.0805C11.0805 28.928 10.8976 28.8517 10.6509 28.8517H9.14512V30.4026H10.5998ZM10.8295 33.0467C11.0762 33.0467 11.2719 32.9662 11.4165 32.8052C11.5696 32.6441 11.6462 32.4492 11.6462 32.2204C11.6462 31.9831 11.5739 31.7882 11.4292 31.6357C11.2846 31.4746 11.089 31.3941 10.8423 31.3941H9.14512V33.0467H10.8295Z" fill="#003333"/>
<path d="M18.545 34.4069C18.0175 34.4069 17.5582 34.2925 17.1668 34.0636C16.7755 33.8264 16.4693 33.5086 16.2481 33.1102V36.9874H14.5382V27.6187H16.0312V28.7627C16.2779 28.3729 16.5969 28.0678 16.9882 27.8475C17.3795 27.6187 17.8304 27.5043 18.3408 27.5043C18.7917 27.5043 19.2085 27.5975 19.5913 27.7839C19.9741 27.9619 20.3016 28.2077 20.5739 28.5212C20.8546 28.8263 21.0715 29.1907 21.2246 29.6145C21.3863 30.0297 21.4671 30.4704 21.4671 30.9365C21.4671 31.4196 21.3948 31.8729 21.2502 32.2967C21.1055 32.7204 20.9014 33.0891 20.6377 33.4026C20.3825 33.7162 20.0762 33.962 19.7189 34.1399C19.3616 34.3179 18.9703 34.4069 18.545 34.4069ZM17.9707 32.9577C18.2259 32.9577 18.4599 32.9026 18.6726 32.7924C18.8937 32.6823 19.0809 32.534 19.234 32.3475C19.3871 32.1611 19.5062 31.945 19.5913 31.6992C19.6764 31.4535 19.7189 31.1992 19.7189 30.9365C19.7189 30.6568 19.6721 30.3984 19.5786 30.1611C19.485 29.9153 19.3531 29.7034 19.183 29.5255C19.0213 29.3475 18.8257 29.2077 18.596 29.106C18.3748 29.0043 18.1324 28.9534 17.8687 28.9534C17.707 28.9534 17.5411 28.9831 17.371 29.0424C17.2009 29.0933 17.0435 29.1695 16.8989 29.2712C16.7542 29.3729 16.6224 29.4916 16.5033 29.6272C16.3927 29.7628 16.3076 29.9111 16.2481 30.0721V31.6357C16.4012 32.017 16.6352 32.3348 16.9499 32.5891C17.2647 32.8348 17.6049 32.9577 17.9707 32.9577Z" fill="#003333"/>
<path d="M25.7006 34.4069C25.1561 34.4069 24.667 34.3136 24.2331 34.1272C23.7993 33.9408 23.4292 33.6908 23.123 33.3772C22.8252 33.0552 22.5955 32.6865 22.4339 32.2713C22.2723 31.856 22.1914 31.4196 22.1914 30.9619C22.1914 30.4958 22.2723 30.0551 22.4339 29.6399C22.5955 29.2246 22.8252 28.8602 23.123 28.5466C23.4292 28.2246 23.7993 27.9704 24.2331 27.7839C24.667 27.5975 25.1561 27.5043 25.7006 27.5043C26.245 27.5043 26.7299 27.5975 27.1552 27.7839C27.5891 27.9704 27.9549 28.2246 28.2526 28.5466C28.5589 28.8602 28.7928 29.2246 28.9545 29.6399C29.1161 30.0551 29.1969 30.4958 29.1969 30.9619C29.1969 31.4196 29.1161 31.856 28.9545 32.2713C28.7928 32.6865 28.5631 33.0552 28.2654 33.3772C27.9677 33.6908 27.6019 33.9408 27.168 34.1272C26.7341 34.3136 26.245 34.4069 25.7006 34.4069ZM23.9524 30.9619C23.9524 31.2585 23.9949 31.5297 24.08 31.7755C24.1736 32.0128 24.2969 32.2204 24.45 32.3984C24.6117 32.5763 24.7988 32.7162 25.0115 32.8179C25.2242 32.9111 25.4539 32.9577 25.7006 32.9577C25.9473 32.9577 26.1769 32.9111 26.3896 32.8179C26.6023 32.7162 26.7852 32.5763 26.9383 32.3984C27.0999 32.2204 27.2233 32.0085 27.3084 31.7628C27.4019 31.517 27.4487 31.2458 27.4487 30.9492C27.4487 30.6611 27.4019 30.3941 27.3084 30.1484C27.2233 29.9026 27.0999 29.6907 26.9383 29.5128C26.7852 29.3348 26.6023 29.1992 26.3896 29.106C26.1769 29.0043 25.9473 28.9534 25.7006 28.9534C25.4539 28.9534 25.2242 29.0043 25.0115 29.106C24.7988 29.2077 24.6117 29.3475 24.45 29.5255C24.2969 29.7034 24.1736 29.9153 24.08 30.1611C23.9949 30.4068 23.9524 30.6738 23.9524 30.9619Z" fill="#003333"/>
<path d="M36.2336 34.2797H34.5364V29.0933H32.0737V34.2797H30.3766V27.6187H36.2336V34.2797Z" fill="#003333"/>
<path d="M40.9037 34.4069C40.3677 34.4069 39.8829 34.3179 39.449 34.1399C39.0151 33.9535 38.6451 33.7035 38.3388 33.3899C38.0326 33.0763 37.7944 32.7119 37.6243 32.2967C37.4626 31.8814 37.3818 31.445 37.3818 30.9873C37.3818 30.5128 37.4626 30.0678 37.6243 29.6526C37.7859 29.2289 38.0198 28.8602 38.3261 28.5466C38.6323 28.2246 39.0024 27.9704 39.4362 27.7839C39.8786 27.5975 40.372 27.5043 40.9164 27.5043C41.4609 27.5043 41.9458 27.5975 42.3711 27.7839C42.805 27.9704 43.1708 28.2204 43.4685 28.5339C43.7748 28.8475 44.0045 29.2119 44.1576 29.6272C44.3192 30.0424 44.4 30.4746 44.4 30.9238C44.4 31.034 44.3958 31.1399 44.3873 31.2416C44.3873 31.3433 44.3788 31.428 44.3618 31.4958H39.1938C39.2193 31.7585 39.2831 31.9916 39.3852 32.195C39.4873 32.3984 39.6191 32.5721 39.7808 32.7162C39.9424 32.8602 40.1253 32.9704 40.3295 33.0467C40.5336 33.123 40.7463 33.1611 40.9675 33.1611C41.3078 33.1611 41.6268 33.0806 41.9245 32.9196C42.2308 32.7501 42.4392 32.5297 42.5498 32.2585L44.0172 32.6653C43.7705 33.1738 43.375 33.5933 42.8305 33.9238C42.2946 34.2459 41.6523 34.4069 40.9037 34.4069ZM42.6391 30.3899C42.5966 29.8899 42.4094 29.4916 42.0776 29.195C41.7544 28.8899 41.3588 28.7373 40.8909 28.7373C40.6612 28.7373 40.4443 28.7797 40.2401 28.8644C40.0445 28.9407 39.8701 29.0509 39.717 29.195C39.5638 29.339 39.4362 29.5128 39.3342 29.7161C39.2406 29.9195 39.1853 30.1441 39.1683 30.3899H42.6391Z" fill="#003333"/>
<path d="M50.7628 25C50.7458 25.5339 50.5459 25.9534 50.1631 26.2585C49.7802 26.5551 49.2783 26.7034 48.6573 26.7034C48.0363 26.7034 47.5344 26.5551 47.1516 26.2585C46.7688 25.9534 46.5689 25.5339 46.5519 25H47.4961C47.5046 25.322 47.6067 25.5593 47.8024 25.7119C48.0065 25.8644 48.2915 25.9407 48.6573 25.9407C49.3889 25.9407 49.7802 25.6271 49.8313 25H50.7628ZM47.1644 31.8518L50.3289 27.6187H51.5922V34.2797H49.8951V30.1611L46.7688 34.2797H45.4672V27.6187H47.1644V31.8518Z" fill="#003333"/>
<path d="M52.7591 30.9492C52.7591 30.4831 52.8399 30.0424 53.0015 29.6272C53.1632 29.2119 53.3971 28.8475 53.7034 28.5339C54.0096 28.2204 54.3797 27.9704 54.8135 27.7839C55.2474 27.5975 55.7365 27.5043 56.281 27.5043C57.0126 27.5043 57.6336 27.661 58.144 27.9746C58.6629 28.2882 59.05 28.6992 59.3052 29.2077L57.6336 29.7161C57.489 29.4704 57.2976 29.2839 57.0594 29.1568C56.8212 29.0212 56.5574 28.9534 56.2682 28.9534C56.0215 28.9534 55.7918 29.0043 55.5792 29.106C55.3665 29.1992 55.1793 29.3348 55.0177 29.5128C54.8646 29.6822 54.7412 29.8899 54.6476 30.1356C54.5626 30.3814 54.52 30.6526 54.52 30.9492C54.52 31.2458 54.5668 31.517 54.6604 31.7628C54.754 32.0085 54.8773 32.2204 55.0305 32.3984C55.1921 32.5763 55.3792 32.7162 55.5919 32.8179C55.8046 32.9111 56.03 32.9577 56.2682 32.9577C56.5745 32.9577 56.8552 32.8814 57.1104 32.7289C57.3741 32.5763 57.557 32.3899 57.6591 32.1696L59.3307 32.678C59.101 33.1865 58.7225 33.6018 58.195 33.9238C57.6676 34.2459 57.0338 34.4069 56.2937 34.4069C55.7493 34.4069 55.2601 34.3136 54.8263 34.1272C54.3924 33.9408 54.0224 33.6908 53.7161 33.3772C53.4099 33.0552 53.1717 32.6865 53.0015 32.2713C52.8399 31.8475 52.7591 31.4068 52.7591 30.9492Z" fill="#003333"/>
<path d="M64.5045 27.6187H66.342L63.7388 30.8475L66.5461 34.2797H64.6065L62.5394 31.7119H62.0927V34.2797H60.4084V27.6187H62.0927V30.2628H62.4756L64.5045 27.6187Z" fill="#003333"/>
<path d="M70.1003 34.4069C69.5558 34.4069 69.0667 34.3136 68.6328 34.1272C68.199 33.9408 67.8289 33.6908 67.5227 33.3772C67.2249 33.0552 66.9953 32.6865 66.8336 32.2713C66.672 31.856 66.5912 31.4196 66.5912 30.9619C66.5912 30.4958 66.672 30.0551 66.8336 29.6399C66.9953 29.2246 67.2249 28.8602 67.5227 28.5466C67.8289 28.2246 68.199 27.9704 68.6328 27.7839C69.0667 27.5975 69.5558 27.5043 70.1003 27.5043C70.6447 27.5043 71.1296 27.5975 71.555 27.7839C71.9888 27.9704 72.3546 28.2246 72.6524 28.5466C72.9586 28.8602 73.1926 29.2246 73.3542 29.6399C73.5158 30.0551 73.5966 30.4958 73.5966 30.9619C73.5966 31.4196 73.5158 31.856 73.3542 32.2713C73.1926 32.6865 72.9629 33.0552 72.6651 33.3772C72.3674 33.6908 72.0016 33.9408 71.5677 34.1272C71.1339 34.3136 70.6447 34.4069 70.1003 34.4069ZM68.3521 30.9619C68.3521 31.2585 68.3947 31.5297 68.4797 31.7755C68.5733 32.0128 68.6966 32.2204 68.8498 32.3984C69.0114 32.5763 69.1986 32.7162 69.4112 32.8179C69.6239 32.9111 69.8536 32.9577 70.1003 32.9577C70.347 32.9577 70.5767 32.9111 70.7894 32.8179C71.002 32.7162 71.1849 32.5763 71.3381 32.3984C71.4997 32.2204 71.623 32.0085 71.7081 31.7628C71.8017 31.517 71.8485 31.2458 71.8485 30.9492C71.8485 30.6611 71.8017 30.3941 71.7081 30.1484C71.623 29.9026 71.4997 29.6907 71.3381 29.5128C71.1849 29.3348 71.002 29.1992 70.7894 29.106C70.5767 29.0043 70.347 28.9534 70.1003 28.9534C69.8536 28.9534 69.6239 29.0043 69.4112 29.106C69.1986 29.2077 69.0114 29.3475 68.8498 29.5255C68.6966 29.7034 68.5733 29.9153 68.4797 30.1611C68.3947 30.4068 68.3521 30.6738 68.3521 30.9619Z" fill="#003333"/>
<path d="M77.8515 34.4069C77.3156 34.4069 76.8307 34.3179 76.3969 34.1399C75.963 33.9535 75.5929 33.7035 75.2867 33.3899C74.9805 33.0763 74.7423 32.7119 74.5721 32.2967C74.4105 31.8814 74.3297 31.445 74.3297 30.9873C74.3297 30.5128 74.4105 30.0678 74.5721 29.6526C74.7337 29.2289 74.9677 28.8602 75.2739 28.5466C75.5802 28.2246 75.9502 27.9704 76.3841 27.7839C76.8265 27.5975 77.3199 27.5043 77.8643 27.5043C78.4088 27.5043 78.8936 27.5975 79.319 27.7839C79.7528 27.9704 80.1186 28.2204 80.4164 28.5339C80.7226 28.8475 80.9523 29.2119 81.1054 29.6272C81.2671 30.0424 81.3479 30.4746 81.3479 30.9238C81.3479 31.034 81.3436 31.1399 81.3351 31.2416C81.3351 31.3433 81.3266 31.428 81.3096 31.4958H76.1416C76.1672 31.7585 76.231 31.9916 76.3331 32.195C76.4351 32.3984 76.567 32.5721 76.7286 32.7162C76.8903 32.8602 77.0732 32.9704 77.2773 33.0467C77.4815 33.123 77.6942 33.1611 77.9153 33.1611C78.2556 33.1611 78.5746 33.0806 78.8724 32.9196C79.1786 32.7501 79.387 32.5297 79.4976 32.2585L80.9651 32.6653C80.7184 33.1738 80.3228 33.5933 79.7784 33.9238C79.2424 34.2459 78.6002 34.4069 77.8515 34.4069ZM79.587 30.3899C79.5444 29.8899 79.3573 29.4916 79.0255 29.195C78.7022 28.8899 78.3067 28.7373 77.8388 28.7373C77.6091 28.7373 77.3922 28.7797 77.188 28.8644C76.9923 28.9407 76.8179 29.0509 76.6648 29.195C76.5117 29.339 76.3841 29.5128 76.282 29.7161C76.1884 29.9195 76.1331 30.1441 76.1161 30.3899H79.587Z" fill="#003333"/>
<path d="M89.5767 27.6187H91.4142L88.811 30.8475L91.6183 34.2797H89.6788L87.6116 31.7119H87.165V34.2797H85.4806V27.6187H87.165V30.2628H87.5478L89.5767 27.6187Z" fill="#003333"/>
<path d="M94.0961 34.4069C93.7729 34.4069 93.4709 34.356 93.1901 34.2543C92.9094 34.1442 92.667 33.9958 92.4628 33.8094C92.2586 33.6145 92.097 33.3899 91.9779 33.1357C91.8673 32.8814 91.812 32.6018 91.812 32.2967C91.812 31.9831 91.8801 31.695 92.0162 31.4323C92.1608 31.1611 92.3565 30.9323 92.6032 30.7458C92.8584 30.5594 93.1604 30.4153 93.5092 30.3136C93.8579 30.2034 94.2408 30.1484 94.6576 30.1484C94.9553 30.1484 95.2446 30.1738 95.5253 30.2246C95.8145 30.2755 96.0697 30.3475 96.2909 30.4407V30.0594C96.2909 29.6187 96.1633 29.2797 95.9081 29.0424C95.6614 28.8051 95.2914 28.6865 94.798 28.6865C94.4407 28.6865 94.0919 28.75 93.7516 28.8772C93.4113 29.0043 93.0625 29.1907 92.7053 29.4365L92.1821 28.356C93.0413 27.7882 93.9685 27.5043 94.9639 27.5043C95.9251 27.5043 96.6695 27.7416 97.1969 28.2161C97.7328 28.6822 98.0008 29.3602 98.0008 30.2501V32.3221C98.0008 32.5001 98.0306 32.6272 98.0901 32.7035C98.1582 32.7797 98.2645 32.8221 98.4091 32.8306V34.2797C98.1199 34.3391 97.869 34.3687 97.6563 34.3687C97.333 34.3687 97.0821 34.2967 96.9034 34.1526C96.7333 34.0086 96.627 33.8179 96.5844 33.5806L96.5461 33.2119C96.2484 33.6018 95.8868 33.8984 95.4615 34.1018C95.0361 34.3052 94.581 34.4069 94.0961 34.4069ZM94.581 33.1611C94.8703 33.1611 95.1425 33.1102 95.3977 33.0086C95.6614 32.9069 95.8656 32.7713 96.0102 32.6018C96.1973 32.4577 96.2909 32.2967 96.2909 32.1187V31.356C96.0868 31.2797 95.8656 31.2204 95.6274 31.178C95.3892 31.1272 95.1595 31.1018 94.9383 31.1018C94.496 31.1018 94.1344 31.2034 93.8537 31.4068C93.573 31.6018 93.4326 31.8518 93.4326 32.1568C93.4326 32.445 93.5432 32.6865 93.7644 32.8814C93.9855 33.0679 94.2578 33.1611 94.581 33.1611Z" fill="#003333"/>
<path d="M104.587 34.2797H102.916V31.9026C102.72 31.9704 102.516 32.0213 102.303 32.0552C102.099 32.0891 101.84 32.106 101.525 32.106C101.142 32.106 100.81 32.0467 100.53 31.928C100.249 31.8009 100.015 31.6357 99.8278 31.4323C99.6406 31.2204 99.5002 30.9746 99.4067 30.695C99.3131 30.4153 99.2663 30.1145 99.2663 29.7924V27.6187H100.912V29.5382C100.912 29.9789 101.002 30.2924 101.18 30.4789C101.359 30.6653 101.61 30.7585 101.933 30.7585C102.171 30.7585 102.367 30.7373 102.52 30.695C102.682 30.6441 102.814 30.5806 102.916 30.5043V27.6187H104.587V34.2797Z" fill="#003333"/>
<path d="M109.267 34.4069C108.731 34.4069 108.246 34.3179 107.812 34.1399C107.378 33.9535 107.008 33.7035 106.702 33.3899C106.395 33.0763 106.157 32.7119 105.987 32.2967C105.826 31.8814 105.745 31.445 105.745 30.9873C105.745 30.5128 105.826 30.0678 105.987 29.6526C106.149 29.2289 106.383 28.8602 106.689 28.5466C106.995 28.2246 107.365 27.9704 107.799 27.7839C108.241 27.5975 108.735 27.5043 109.279 27.5043C109.824 27.5043 110.309 27.5975 110.734 27.7839C111.168 27.9704 111.534 28.2204 111.831 28.5339C112.138 28.8475 112.367 29.2119 112.52 29.6272C112.682 30.0424 112.763 30.4746 112.763 30.9238C112.763 31.034 112.759 31.1399 112.75 31.2416C112.75 31.3433 112.742 31.428 112.725 31.4958H107.557C107.582 31.7585 107.646 31.9916 107.748 32.195C107.85 32.3984 107.982 32.5721 108.144 32.7162C108.305 32.8602 108.488 32.9704 108.692 33.0467C108.897 33.123 109.109 33.1611 109.33 33.1611C109.671 33.1611 109.99 33.0806 110.287 32.9196C110.594 32.7501 110.802 32.5297 110.913 32.2585L112.38 32.6653C112.133 33.1738 111.738 33.5933 111.193 33.9238C110.657 34.2459 110.015 34.4069 109.267 34.4069ZM111.002 30.3899C110.959 29.8899 110.772 29.4916 110.441 29.195C110.117 28.8899 109.722 28.7373 109.254 28.7373C109.024 28.7373 108.807 28.7797 108.603 28.8644C108.407 28.9407 108.233 29.0509 108.08 29.195C107.927 29.339 107.799 29.5128 107.697 29.7161C107.603 29.9195 107.548 30.1441 107.531 30.3899H111.002Z" fill="#003333"/>
<path d="M113.383 30.9492C113.383 30.4831 113.464 30.0424 113.626 29.6272C113.788 29.2119 114.022 28.8475 114.328 28.5339C114.634 28.2204 115.004 27.9704 115.438 27.7839C115.872 27.5975 116.361 27.5043 116.905 27.5043C117.637 27.5043 118.258 27.661 118.768 27.9746C119.287 28.2882 119.674 28.6992 119.93 29.2077L118.258 29.7161C118.113 29.4704 117.922 29.2839 117.684 29.1568C117.446 29.0212 117.182 28.9534 116.893 28.9534C116.646 28.9534 116.416 29.0043 116.204 29.106C115.991 29.1992 115.804 29.3348 115.642 29.5128C115.489 29.6822 115.366 29.8899 115.272 30.1356C115.187 30.3814 115.144 30.6526 115.144 30.9492C115.144 31.2458 115.191 31.517 115.285 31.7628C115.378 32.0085 115.502 32.2204 115.655 32.3984C115.816 32.5763 116.004 32.7162 116.216 32.8179C116.429 32.9111 116.654 32.9577 116.893 32.9577C117.199 32.9577 117.48 32.8814 117.735 32.7289C117.999 32.5763 118.181 32.3899 118.283 32.1696L119.955 32.678C119.725 33.1865 119.347 33.6018 118.819 33.9238C118.292 34.2459 117.658 34.4069 116.918 34.4069C116.374 34.4069 115.885 34.3136 115.451 34.1272C115.017 33.9408 114.647 33.6908 114.341 33.3772C114.034 33.0552 113.796 32.6865 113.626 32.2713C113.464 31.8475 113.383 31.4068 113.383 30.9492Z" fill="#003333"/>
<path d="M124.236 34.2797H122.538V29.0933H120.446V27.6187H126.316V29.0933H124.236V34.2797Z" fill="#003333"/>
<path d="M131.307 27.6187C131.553 27.6187 131.779 27.6653 131.983 27.7585C132.187 27.8432 132.362 27.9619 132.506 28.1144C132.659 28.267 132.774 28.4449 132.851 28.6483C132.936 28.8517 132.978 29.0678 132.978 29.2967C132.978 29.5848 132.902 29.8772 132.749 30.1738C132.595 30.4619 132.345 30.678 131.996 30.8221C132.387 30.9323 132.693 31.1229 132.914 31.3941C133.144 31.6568 133.259 32.017 133.259 32.4746C133.259 33.0848 133.046 33.5382 132.621 33.8348C132.196 34.1314 131.609 34.2797 130.86 34.2797H127.351V27.6187H131.307ZM130.503 30.4026C130.741 30.4026 130.932 30.3348 131.077 30.1992C131.222 30.0636 131.294 29.8687 131.294 29.6145C131.294 29.4026 131.23 29.2246 131.103 29.0805C130.983 28.928 130.801 28.8517 130.554 28.8517H129.048V30.4026H130.503ZM130.732 33.0467C130.979 33.0467 131.175 32.9662 131.319 32.8052C131.473 32.6441 131.549 32.4492 131.549 32.2204C131.549 31.9831 131.477 31.7882 131.332 31.6357C131.188 31.4746 130.992 31.3941 130.745 31.3941H129.048V33.0467H130.732Z" fill="#003333"/>
<path d="M137.504 34.4069C136.959 34.4069 136.47 34.3136 136.036 34.1272C135.602 33.9408 135.232 33.6908 134.926 33.3772C134.628 33.0552 134.399 32.6865 134.237 32.2713C134.075 31.856 133.995 31.4196 133.995 30.9619C133.995 30.4958 134.075 30.0551 134.237 29.6399C134.399 29.2246 134.628 28.8602 134.926 28.5466C135.232 28.2246 135.602 27.9704 136.036 27.7839C136.47 27.5975 136.959 27.5043 137.504 27.5043C138.048 27.5043 138.533 27.5975 138.958 27.7839C139.392 27.9704 139.758 28.2246 140.056 28.5466C140.362 28.8602 140.596 29.2246 140.758 29.6399C140.919 30.0551 141 30.4958 141 30.9619C141 31.4196 140.919 31.856 140.758 32.2713C140.596 32.6865 140.366 33.0552 140.068 33.3772C139.771 33.6908 139.405 33.9408 138.971 34.1272C138.537 34.3136 138.048 34.4069 137.504 34.4069ZM135.755 30.9619C135.755 31.2585 135.798 31.5297 135.883 31.7755C135.977 32.0128 136.1 32.2204 136.253 32.3984C136.415 32.5763 136.602 32.7162 136.815 32.8179C137.027 32.9111 137.257 32.9577 137.504 32.9577C137.75 32.9577 137.98 32.9111 138.193 32.8179C138.405 32.7162 138.588 32.5763 138.741 32.3984C138.903 32.2204 139.026 32.0085 139.111 31.7628C139.205 31.517 139.252 31.2458 139.252 30.9492C139.252 30.6611 139.205 30.3941 139.111 30.1484C139.026 29.9026 138.903 29.6907 138.741 29.5128C138.588 29.3348 138.405 29.1992 138.193 29.106C137.98 29.0043 137.75 28.9534 137.504 28.9534C137.257 28.9534 137.027 29.0043 136.815 29.106C136.602 29.2077 136.415 29.3475 136.253 29.5255C136.1 29.7034 135.977 29.9153 135.883 30.1611C135.798 30.4068 135.755 30.6738 135.755 30.9619Z" fill="#003333"/>
<path d="M37.1372 46.1779L39.1151 42.6313H40.8633V49.2923H39.2299V45.2881L37.5328 48.2881H36.7289L35.0318 45.2881V49.2923H33.3984V42.6313H35.1594L37.1372 46.1779Z" fill="#003333"/>
<path d="M44.2695 49.4195C43.9462 49.4195 43.6442 49.3686 43.3635 49.2669C43.0828 49.1568 42.8403 49.0084 42.6362 48.822C42.432 48.6271 42.2704 48.4025 42.1513 48.1483C42.0407 47.894 41.9854 47.6144 41.9854 47.3093C41.9854 46.9957 42.0534 46.7076 42.1895 46.4449C42.3342 46.1737 42.5298 45.9449 42.7765 45.7584C43.0317 45.572 43.3337 45.4279 43.6825 45.3262C44.0313 45.216 44.4141 45.161 44.831 45.161C45.1287 45.161 45.4179 45.1864 45.6987 45.2372C45.9879 45.2881 46.2431 45.3601 46.4643 45.4533V45.072C46.4643 44.6313 46.3367 44.2923 46.0815 44.055C45.8348 43.8177 45.4647 43.6991 44.9713 43.6991C44.614 43.6991 44.2652 43.7626 43.925 43.8898C43.5847 44.0169 43.2359 44.2033 42.8786 44.4491L42.3554 43.3686C43.2146 42.8008 44.1419 42.5169 45.1372 42.5169C46.0985 42.5169 46.8428 42.7541 47.3703 43.2287C47.9062 43.6948 48.1742 44.3728 48.1742 45.2626V47.3347C48.1742 47.5127 48.204 47.6398 48.2635 47.7161C48.3316 47.7923 48.4379 47.8347 48.5825 47.8432V49.2923C48.2933 49.3517 48.0423 49.3813 47.8296 49.3813C47.5064 49.3813 47.2554 49.3093 47.0768 49.1652C46.9066 49.0212 46.8003 48.8305 46.7578 48.5932L46.7195 48.2245C46.4217 48.6144 46.0602 48.911 45.6349 49.1144C45.2095 49.3178 44.7544 49.4195 44.2695 49.4195ZM44.7544 48.1737C45.0436 48.1737 45.3158 48.1228 45.5711 48.0211C45.8348 47.9195 46.0389 47.7839 46.1836 47.6144C46.3707 47.4703 46.4643 47.3093 46.4643 47.1313V46.3686C46.2601 46.2923 46.0389 46.233 45.8007 46.1906C45.5625 46.1398 45.3329 46.1143 45.1117 46.1143C44.6693 46.1143 44.3078 46.216 44.027 46.4194C43.7463 46.6144 43.606 46.8644 43.606 47.1694C43.606 47.4576 43.7165 47.6991 43.9377 47.894C44.1589 48.0805 44.4311 48.1737 44.7544 48.1737Z" fill="#003333"/>
<path d="M52.8384 49.2923H51.1413V44.1059H49.0486V42.6313H54.9184V44.1059H52.8384V49.2923Z" fill="#003333"/>
<path d="M58.6922 49.4195C58.1563 49.4195 57.6714 49.3305 57.2376 49.1525C56.8037 48.9661 56.4337 48.7161 56.1274 48.4025C55.8212 48.0889 55.583 47.7245 55.4128 47.3093C55.2512 46.894 55.1704 46.4576 55.1704 45.9999C55.1704 45.5254 55.2512 45.0804 55.4128 44.6652C55.5745 44.2414 55.8084 43.8728 56.1146 43.5592C56.4209 43.2372 56.7909 42.983 57.2248 42.7965C57.6672 42.6101 58.1606 42.5169 58.705 42.5169C59.2495 42.5169 59.7343 42.6101 60.1597 42.7965C60.5935 42.983 60.9593 43.233 61.2571 43.5465C61.5633 43.8601 61.793 44.2245 61.9461 44.6398C62.1078 45.055 62.1886 45.4872 62.1886 45.9364C62.1886 46.0466 62.1843 46.1525 62.1758 46.2542C62.1758 46.3559 62.1673 46.4406 62.1503 46.5084H56.9824C57.0079 46.7711 57.0717 47.0042 57.1738 47.2076C57.2758 47.411 57.4077 47.5847 57.5693 47.7288C57.731 47.8728 57.9139 47.983 58.118 48.0593C58.3222 48.1356 58.5349 48.1737 58.7561 48.1737C59.0963 48.1737 59.4153 48.0932 59.7131 47.9322C60.0193 47.7627 60.2277 47.5423 60.3383 47.2711L61.8058 47.6779C61.5591 48.1864 61.1635 48.6059 60.6191 48.9364C60.0831 49.2584 59.4409 49.4195 58.6922 49.4195ZM60.4277 45.4025C60.3851 44.9025 60.198 44.5042 59.8662 44.2076C59.5429 43.9025 59.1474 43.7499 58.6795 43.7499C58.4498 43.7499 58.2329 43.7923 58.0287 43.877C57.833 43.9533 57.6587 44.0635 57.5055 44.2076C57.3524 44.3516 57.2248 44.5254 57.1227 44.7287C57.0291 44.9321 56.9738 45.1567 56.9568 45.4025H60.4277Z" fill="#003333"/>
<path d="M67.2626 49.4195C66.7351 49.4195 66.2757 49.3051 65.8844 49.0762C65.4931 48.839 65.1869 48.5212 64.9657 48.1228V52H63.2558V42.6313H64.7488V43.7753C64.9955 43.3855 65.3145 43.0804 65.7058 42.8601C66.0971 42.6313 66.548 42.5169 67.0584 42.5169C67.5093 42.5169 67.9261 42.6101 68.3089 42.7965C68.6917 42.9745 69.0192 43.2203 69.2915 43.5338C69.5722 43.8389 69.7891 44.2033 69.9422 44.627C70.1039 45.0423 70.1847 45.483 70.1847 45.9491C70.1847 46.4321 70.1124 46.8855 69.9678 47.3093C69.8231 47.733 69.619 48.1017 69.3553 48.4152C69.1001 48.7288 68.7938 48.9745 68.4365 49.1525C68.0792 49.3305 67.6879 49.4195 67.2626 49.4195ZM66.6883 47.9703C66.9435 47.9703 67.1775 47.9152 67.3902 47.805C67.6113 47.6949 67.7985 47.5466 67.9516 47.3601C68.1047 47.1737 68.2238 46.9576 68.3089 46.7118C68.394 46.466 68.4365 46.2118 68.4365 45.9491C68.4365 45.6694 68.3897 45.411 68.2961 45.1737C68.2026 44.9279 68.0707 44.716 67.9006 44.5381C67.7389 44.3601 67.5433 44.2203 67.3136 44.1186C67.0924 44.0169 66.85 43.966 66.5863 43.966C66.4246 43.966 66.2587 43.9957 66.0886 44.055C65.9185 44.1059 65.7611 44.1821 65.6165 44.2838C65.4718 44.3855 65.34 44.5042 65.2209 44.6398C65.1103 44.7754 65.0252 44.9237 64.9657 45.0847V46.6483C65.1188 47.0296 65.3527 47.3474 65.6675 47.6017C65.9823 47.8474 66.3225 47.9703 66.6883 47.9703Z" fill="#003333"/>
<path d="M73.0528 46.8644L76.2174 42.6313H77.4807V49.2923H75.7835V45.1737L72.6572 49.2923H71.3557V42.6313H73.0528V46.8644Z" fill="#003333"/>
<path d="M80.8934 49.4195C80.5701 49.4195 80.2681 49.3686 79.9874 49.2669C79.7066 49.1568 79.4642 49.0084 79.26 48.822C79.0559 48.6271 78.8942 48.4025 78.7751 48.1483C78.6645 47.894 78.6092 47.6144 78.6092 47.3093C78.6092 46.9957 78.6773 46.7076 78.8134 46.4449C78.958 46.1737 79.1537 45.9449 79.4004 45.7584C79.6556 45.572 79.9576 45.4279 80.3064 45.3262C80.6552 45.216 81.038 45.161 81.4548 45.161C81.7526 45.161 82.0418 45.1864 82.3225 45.2372C82.6118 45.2881 82.867 45.3601 83.0882 45.4533V45.072C83.0882 44.6313 82.9605 44.2923 82.7053 44.055C82.4586 43.8177 82.0886 43.6991 81.5952 43.6991C81.2379 43.6991 80.8891 43.7626 80.5488 43.8898C80.2085 44.0169 79.8598 44.2033 79.5025 44.4491L78.9793 43.3686C79.8385 42.8008 80.7658 42.5169 81.7611 42.5169C82.7224 42.5169 83.4667 42.7541 83.9941 43.2287C84.5301 43.6948 84.798 44.3728 84.798 45.2626V47.3347C84.798 47.5127 84.8278 47.6398 84.8874 47.7161C84.9554 47.7923 85.0618 47.8347 85.2064 47.8432V49.2923C84.9171 49.3517 84.6662 49.3813 84.4535 49.3813C84.1302 49.3813 83.8793 49.3093 83.7006 49.1652C83.5305 49.0212 83.4242 48.8305 83.3816 48.5932L83.3434 48.2245C83.0456 48.6144 82.6841 48.911 82.2587 49.1144C81.8334 49.3178 81.3783 49.4195 80.8934 49.4195ZM81.3783 48.1737C81.6675 48.1737 81.9397 48.1228 82.1949 48.0211C82.4586 47.9195 82.6628 47.7839 82.8074 47.6144C82.9946 47.4703 83.0882 47.3093 83.0882 47.1313V46.3686C82.884 46.2923 82.6628 46.233 82.4246 46.1906C82.1864 46.1398 81.9567 46.1143 81.7355 46.1143C81.2932 46.1143 80.9316 46.216 80.6509 46.4194C80.3702 46.6144 80.2298 46.8644 80.2298 47.1694C80.2298 47.4576 80.3404 47.6991 80.5616 47.894C80.7828 48.0805 81.055 48.1737 81.3783 48.1737Z" fill="#003333"/>
<path d="M85.7445 47.8432C85.9912 47.8262 86.1911 47.7754 86.3442 47.6906C86.5059 47.6059 86.6377 47.4491 86.7398 47.2203C86.8504 46.9915 86.9397 46.6779 87.0078 46.2796C87.0844 45.8728 87.1609 45.3432 87.2375 44.6906L87.4672 42.6313H92.1502V49.2923H90.4531V44.055H88.9601L88.8325 45.0593C88.7304 45.8982 88.6071 46.5932 88.4625 47.144C88.3179 47.6864 88.1307 48.1186 87.901 48.4406C87.6798 48.7627 87.4034 48.9915 87.0716 49.1271C86.7398 49.2542 86.3315 49.3262 85.8466 49.3432L85.7445 47.8432Z" fill="#003333"/>
<path d="M96.8236 49.4195C96.2792 49.4195 95.79 49.3262 95.3562 49.1398C94.9223 48.9534 94.5523 48.7034 94.246 48.3898C93.9483 48.0678 93.7186 47.6991 93.557 47.2839C93.3953 46.8686 93.3145 46.4321 93.3145 45.9745C93.3145 45.5084 93.3953 45.0677 93.557 44.6525C93.7186 44.2372 93.9483 43.8728 94.246 43.5592C94.5523 43.2372 94.9223 42.983 95.3562 42.7965C95.79 42.6101 96.2792 42.5169 96.8236 42.5169C97.3681 42.5169 97.853 42.6101 98.2783 42.7965C98.7122 42.983 99.078 43.2372 99.3757 43.5592C99.682 43.8728 99.9159 44.2372 100.078 44.6525C100.239 45.0677 100.32 45.5084 100.32 45.9745C100.32 46.4321 100.239 46.8686 100.078 47.2839C99.9159 47.6991 99.6862 48.0678 99.3885 48.3898C99.0907 48.7034 98.7249 48.9534 98.2911 49.1398C97.8572 49.3262 97.3681 49.4195 96.8236 49.4195ZM95.0755 45.9745C95.0755 46.2711 95.118 46.5423 95.2031 46.7881C95.2966 47.0254 95.42 47.233 95.5731 47.411C95.7347 47.5889 95.9219 47.7288 96.1346 47.8305C96.3472 47.9237 96.5769 47.9703 96.8236 47.9703C97.0703 47.9703 97.3 47.9237 97.5127 47.8305C97.7254 47.7288 97.9083 47.5889 98.0614 47.411C98.223 47.233 98.3464 47.0211 98.4314 46.7754C98.525 46.5296 98.5718 46.2584 98.5718 45.9618C98.5718 45.6737 98.525 45.4067 98.4314 45.161C98.3464 44.9152 98.223 44.7033 98.0614 44.5254C97.9083 44.3474 97.7254 44.2118 97.5127 44.1186C97.3 44.0169 97.0703 43.966 96.8236 43.966C96.5769 43.966 96.3472 44.0169 96.1346 44.1186C95.9219 44.2203 95.7347 44.3601 95.5731 44.5381C95.42 44.716 95.2966 44.9279 95.2031 45.1737C95.118 45.4194 95.0755 45.6864 95.0755 45.9745Z" fill="#003333"/>
<path d="M105.468 42.6313C105.715 42.6313 105.94 42.6779 106.144 42.7711C106.349 42.8558 106.523 42.9745 106.668 43.127C106.821 43.2796 106.936 43.4575 107.012 43.6609C107.097 43.8643 107.14 44.0804 107.14 44.3092C107.14 44.5974 107.063 44.8898 106.91 45.1864C106.757 45.4745 106.506 45.6906 106.157 45.8347C106.548 45.9449 106.855 46.1355 107.076 46.4067C107.306 46.6694 107.42 47.0296 107.42 47.4872C107.42 48.0974 107.208 48.5508 106.782 48.8474C106.357 49.144 105.77 49.2923 105.021 49.2923H101.512V42.6313H105.468ZM104.664 45.4152C104.902 45.4152 105.094 45.3474 105.238 45.2118C105.383 45.0762 105.455 44.8813 105.455 44.627C105.455 44.4152 105.392 44.2372 105.264 44.0931C105.145 43.9406 104.962 43.8643 104.715 43.8643H103.21V45.4152H104.664ZM104.894 48.0593C105.141 48.0593 105.336 47.9788 105.481 47.8178C105.634 47.6567 105.711 47.4618 105.711 47.233C105.711 46.9957 105.638 46.8008 105.494 46.6483C105.349 46.4872 105.153 46.4067 104.907 46.4067H103.21V48.0593H104.894Z" fill="#003333"/>
</svg>
