<svg width="115" height="75" viewBox="0 0 115 75" fill="none" xmlns="http://www.w3.org/2000/svg">
<path fill-rule="evenodd" clip-rule="evenodd" d="M72.6552 8L72.7775 8.14741C72.787 8.15887 72.7955 8.16492 72.8212 8.18042C72.8221 8.18091 72.8229 8.18142 72.8238 8.18194C72.8498 8.19759 72.8913 8.22258 72.9319 8.27158L73 8.3537L70.4464 14H70.37C70.3361 14 70.3071 13.9898 70.2862 13.9804C70.2669 13.9717 70.2488 13.9607 70.237 13.9536L70.2353 13.9525C70.2215 13.9443 70.2148 13.9404 70.2094 13.9379H70L72.6552 8Z" fill="#669933"/>
<path fill-rule="evenodd" clip-rule="evenodd" d="M70.3322 7H70.4617C70.5138 7 70.5583 7.01 70.5903 7.01931C70.62 7.02793 70.6478 7.03873 70.6659 7.04572L70.6685 7.04676C70.6896 7.05493 70.7 7.05878 70.7082 7.06121H71L67.6678 13H67.5383C67.4862 13 67.4417 12.99 67.4097 12.9807C67.38 12.9721 67.3522 12.9613 67.3341 12.9543L67.3315 12.9532C67.3104 12.9451 67.3 12.9412 67.2918 12.9388H67L70.3322 7Z" fill="#669933"/>
<path fill-rule="evenodd" clip-rule="evenodd" d="M67.4501 6H67.5868C67.6706 6 67.7607 6.02785 67.8243 6.05773C67.8588 6.07393 67.8973 6.09615 67.9295 6.12521C67.96 6.15281 68 6.20063 68 6.26471V6.2881L65.6197 12H65.4834C65.4339 12 65.3916 11.9904 65.3611 11.9814C65.3329 11.9732 65.3064 11.9628 65.2893 11.956L65.2867 11.955C65.2666 11.9472 65.2568 11.9435 65.249 11.9412H65L67.4501 6Z" fill="#669933"/>
<path fill-rule="evenodd" clip-rule="evenodd" d="M75.5894 9L75.7245 9.13898C75.7359 9.15078 75.7463 9.15702 75.7773 9.17297C75.7783 9.17348 75.7793 9.174 75.7803 9.17453C75.8117 9.19065 75.8617 9.21637 75.9108 9.2668L76 9.35864L72.4106 15L72.2755 14.861C72.2641 14.8492 72.2537 14.843 72.2227 14.827L72.2197 14.8255C72.1883 14.8094 72.1383 14.7836 72.0892 14.7332L72 14.6414L75.5894 9Z" fill="#669933"/>
<path fill-rule="evenodd" clip-rule="evenodd" d="M37.5122 11L41 15H40.3684L37 11.177H37.3014C37.3039 11.1756 37.3076 11.1735 37.3126 11.1703C37.3328 11.1569 37.3555 11.1374 37.3882 11.1087L37.5122 11Z" fill="#669933"/>
<path fill-rule="evenodd" clip-rule="evenodd" d="M79.6018 13L79.682 13.097C79.7058 13.1257 79.7223 13.1453 79.737 13.1586C79.7406 13.1619 79.7433 13.164 79.7452 13.1654H80L78.5341 15H78L79.6018 13Z" fill="#669933"/>
<path fill-rule="evenodd" clip-rule="evenodd" d="M35.1499 13.0536C35.1777 13.0306 35.2228 13 35.2799 13H35.3274L37 15H36.4889L35 13.2106L35.0733 13.1301C35.074 13.1293 35.0748 13.1284 35.0756 13.1275C35.0956 13.1056 35.1219 13.0766 35.1499 13.0536Z" fill="#669933"/>
<path fill-rule="evenodd" clip-rule="evenodd" d="M64.4327 5H64.5567C64.5936 5 64.6294 5.00778 64.6536 5.01377C64.6791 5.02009 64.7058 5.02819 64.7277 5.03483L64.7296 5.0354C64.7538 5.04275 64.7728 5.04845 64.7891 5.05251C64.8009 5.05542 64.8063 5.05619 64.8072 5.05635H65L63.4666 11L63.2699 10.821C63.2637 10.8154 63.2594 10.8128 63.257 10.8116C63.2547 10.8104 63.2523 10.8095 63.2489 10.8088C63.2394 10.8066 63.2274 10.8059 63.1935 10.8059H63L64.4327 5Z" fill="#669933"/>
<path fill-rule="evenodd" clip-rule="evenodd" d="M47.4266 6.01741C47.4546 6.00958 47.4956 6 47.5441 6H47.6793L50 11.8807H49.75C49.7135 11.8807 49.6929 11.8809 49.6665 11.8851C49.6401 11.8893 49.6005 11.8988 49.5381 11.9235L49.3449 12L47 6.05825H47.25C47.2902 6.05825 47.3204 6.05094 47.3563 6.03954C47.3599 6.03842 47.3648 6.03683 47.3704 6.03496C47.3865 6.02971 47.4091 6.02232 47.4266 6.01741Z" fill="#669933"/>
<path fill-rule="evenodd" clip-rule="evenodd" d="M42.3554 8.00005C42.3606 8.00007 42.3659 8.00009 42.371 8.00009H42.4509L45 13.9369H44.7908C44.7854 13.9394 44.7785 13.9433 44.7645 13.9518L44.7627 13.9528C44.7507 13.9601 44.7322 13.9712 44.7125 13.9801C44.6913 13.9897 44.6617 14 44.6271 14H44.5481L42 8.19185L42.0684 8.10948C42.16 7.99923 42.2646 7.99967 42.3554 8.00005Z" fill="#669933"/>
<path fill-rule="evenodd" clip-rule="evenodd" d="M61.6579 4H61.8889L61.8893 4.16827L62 4.19183L61.3601 11H61L61.6579 4Z" fill="#669933"/>
<path fill-rule="evenodd" clip-rule="evenodd" d="M39.3744 9L43 14.6495L42.9106 14.738C42.8608 14.7873 42.8099 14.8124 42.778 14.8282L42.7749 14.8297C42.7434 14.8453 42.7329 14.8514 42.7212 14.863L42.5828 15L39 9.48282L39.0899 9.3938C39.1153 9.36869 39.1398 9.35084 39.1594 9.33747C39.1694 9.33072 39.1761 9.32629 39.1816 9.32271C39.1891 9.3178 39.1941 9.3145 39.2015 9.30901C39.2142 9.29956 39.2295 9.28692 39.2497 9.24697L39.3744 9Z" fill="#669933"/>
<path fill-rule="evenodd" clip-rule="evenodd" d="M44.3175 7.01737C44.3426 7.009 44.3774 7 44.4183 7H44.5222L47 12.3982H46.8006V13L44 7.05507H44.2252C44.2316 7.05289 44.2397 7.04942 44.2563 7.04207C44.2569 7.04177 44.2576 7.04146 44.2584 7.04114C44.2725 7.03484 44.2943 7.02513 44.3175 7.01737ZM46.7542 12.4139C46.754 12.4141 46.754 12.414 46.7542 12.4139V12.4139Z" fill="#669933"/>
<path fill-rule="evenodd" clip-rule="evenodd" d="M56 4H56.7413L57 11H56.3449L56 4Z" fill="#669933"/>
<path fill-rule="evenodd" clip-rule="evenodd" d="M41.8361 58.4383V58L38 63.6448L38.0895 63.7408C38.1363 63.7908 38.184 63.8164 38.2139 63.8324L38.2168 63.8339C38.2464 63.8498 38.2562 63.856 38.2672 63.8677L38.3906 64L42 58.5973L41.9112 58.5021C41.8875 58.4767 41.8643 58.4583 41.8452 58.4446C41.8421 58.4424 41.839 58.4403 41.8361 58.4383ZM41.8057 58.4177C41.8052 58.4173 41.8049 58.4171 41.8049 58.4171L41.8057 58.4177Z" fill="#669933"/>
<path fill-rule="evenodd" clip-rule="evenodd" d="M58.376 4H59L58.5648 10.752H58.4021C58.3578 10.752 58.3201 10.7419 58.2988 10.7356C58.2953 10.7346 58.2914 10.7335 58.2876 10.7323L58 11L58.376 4ZM58.2552 10.7228C58.2548 10.7227 58.2552 10.7228 58.2552 10.7228V10.7228Z" fill="#669933"/>
<path fill-rule="evenodd" clip-rule="evenodd" d="M53 4H53.4184L54 11H53.6301L53 4Z" fill="#669933"/>
<path fill-rule="evenodd" clip-rule="evenodd" d="M50.3582 5.01724C50.3829 5.00949 50.419 5 50.4618 5H50.5928L52 10.8446L51.9377 10.9001C51.8252 11.0002 51.7018 11.0001 51.6335 11C51.6318 11 51.6302 11 51.6286 11H51.4989L50 5.05771H50.2025C50.2379 5.05771 50.2645 5.05047 50.2962 5.03918C50.2994 5.03807 50.3037 5.03649 50.3087 5.03464C50.3228 5.02943 50.3427 5.02211 50.3582 5.01724Z" fill="#669933"/>
<path fill-rule="evenodd" clip-rule="evenodd" d="M47.4583 62H47.5698C47.6126 62 47.6491 62.0098 47.6754 62.0189C47.6998 62.0274 47.7226 62.038 47.7374 62.0448L47.7396 62.0459C47.7569 62.0539 47.7654 62.0576 47.7721 62.06H48L45.5417 68H45.4302C45.3874 68 45.3509 67.9902 45.3246 67.9811C45.3003 67.9726 45.2774 67.962 45.2626 67.9552L45.2604 67.9542C45.2431 67.9462 45.2346 67.9424 45.2279 67.94H45L47.4583 62Z" fill="#669933"/>
<path fill-rule="evenodd" clip-rule="evenodd" d="M49.5536 63H49.6575C49.6936 63 49.7244 63.0095 49.7466 63.0184C49.7671 63.0266 49.7864 63.0368 49.7989 63.0435C49.7995 63.0438 49.8002 63.0442 49.8008 63.0445C49.8154 63.0523 49.8226 63.0559 49.8283 63.0582H50L48.5039 69H48.3989C48.3194 69 48.2598 68.9782 48.2182 68.9605C48.2078 68.956 48.2007 68.9529 48.1951 68.9504C48.1877 68.9471 48.1829 68.945 48.1764 68.9426C48.1756 68.9422 48.1749 68.942 48.1742 68.9418H48L49.5536 63Z" fill="#669933"/>
<path fill-rule="evenodd" clip-rule="evenodd" d="M54.5717 64H55L54.4792 70L54.2773 69.7906C54.2752 69.7912 54.2725 69.7919 54.2693 69.793C54.2572 69.797 54.2405 69.8041 54.2173 69.8162L54 69.9288L54.5717 64Z" fill="#669933"/>
<path fill-rule="evenodd" clip-rule="evenodd" d="M52.4603 63L52.6983 63.2145C52.7054 63.2209 52.7104 63.2238 52.7131 63.2252C52.7158 63.2266 52.7186 63.2276 52.7224 63.2285C52.7334 63.2309 52.7472 63.2317 52.7862 63.2317H53L51.6345 70L51.4217 69.9041C51.3611 69.8768 51.3227 69.8663 51.297 69.8617C51.2713 69.8571 51.2514 69.8568 51.2159 69.8568H51L52.4603 63Z" fill="#669933"/>
<path fill-rule="evenodd" clip-rule="evenodd" d="M45.5254 61H45.612C45.6487 61 45.6799 61.0099 45.7024 61.0192C45.7233 61.0277 45.7429 61.0384 45.7555 61.0454L45.7574 61.0464C45.7723 61.0545 45.7795 61.0583 45.7853 61.0607H46L43.3749 67L43.2367 66.8489C43.2265 66.8377 43.2172 66.8317 43.1895 66.8166L43.1868 66.8151C43.1587 66.7998 43.1139 66.7753 43.0701 66.7274L43 66.6507L45.5254 61Z" fill="#669933"/>
<path fill-rule="evenodd" clip-rule="evenodd" d="M39.806 57.3394V57L35 61.7488L35.1137 61.8464C35.1446 61.8729 35.1852 61.9078 35.2282 61.9355C35.2712 61.9632 35.3408 62 35.4287 62H35.5057L40 57.4908L39.8907 57.3971C39.8639 57.3741 39.8378 57.3575 39.8162 57.3451C39.8127 57.3431 39.8093 57.3412 39.806 57.3394ZM39.7716 57.3208C39.771 57.3204 39.7708 57.3202 39.7708 57.3202L39.7716 57.3208Z" fill="#669933"/>
<path fill-rule="evenodd" clip-rule="evenodd" d="M77.5851 54L80.7139 56.5727L80.7147 56.5734L83 58.4303L82.8688 58.5615C82.8331 58.5972 82.8089 58.6219 82.7923 58.644C82.7882 58.6494 82.7856 58.6534 82.7839 58.6562V59L80.1669 56.8315L77 54.1922H77.4105C77.4126 54.189 77.4148 54.1855 77.4171 54.182C77.4316 54.1604 77.4509 54.1342 77.4778 54.1074L77.5851 54ZM77.3881 54.2275C77.3881 54.2275 77.3883 54.2272 77.3887 54.2267L77.3881 54.2275Z" fill="#669933"/>
<path fill-rule="evenodd" clip-rule="evenodd" d="M37.6603 56L37.8004 56.115L37.8119 56.1245L37.82 56.1312L37.8261 56.1361L37.8321 56.141L37.8326 56.1415L37.8337 56.1424L37.8354 56.1437L37.8359 56.1442L37.8428 56.1498L37.8433 56.1503L37.8439 56.1508L37.8445 56.1513L37.8514 56.157L37.8523 56.1577L38 56.279L33.4044 60L33 59.6679L37.6603 56Z" fill="#669933"/>
<path fill-rule="evenodd" clip-rule="evenodd" d="M43.5667 60L43.7139 60.1409C43.7259 60.1525 43.7368 60.1586 43.7694 60.1742C43.7704 60.1747 43.7715 60.1752 43.7726 60.1757C43.8055 60.1914 43.8581 60.2166 43.9096 60.2659L44 60.3524L40.4334 66L40.2861 65.8591C40.2741 65.8475 40.2633 65.8415 40.2307 65.8259C40.2296 65.8254 40.2286 65.8249 40.2275 65.8243C40.1945 65.8086 40.1419 65.7835 40.0904 65.7342L40 65.6476L43.5667 60Z" fill="#669933"/>
<path fill-rule="evenodd" clip-rule="evenodd" d="M36.547 54H36.6071C36.6561 54 36.704 54.0106 36.7462 54.0343C36.7836 54.0553 36.8065 54.0813 36.8184 54.0956C36.8293 54.1087 36.8361 54.1176 36.8412 54.1243C36.8501 54.1359 36.854 54.141 36.8656 54.1503L37 54.2581L34.6577 55.7844L34.657 55.7848L31.2232 58V57.723C31.2215 57.7207 31.2188 57.7174 31.2146 57.7129C31.1976 57.6948 31.1728 57.6744 31.1362 57.6451L31 57.5359L34.0995 55.5703L34.1003 55.5698L36.547 54Z" fill="#669933"/>
<path fill-rule="evenodd" clip-rule="evenodd" d="M70.3767 60.0204C70.4035 60.0106 70.4408 60 70.4844 60H70.5802L74 65.8009L73.9104 65.8882C73.7956 66.0002 73.6696 66.0001 73.5998 66C73.5981 66 73.5965 66 73.5949 66H73.4992L70 60.0645H70.278C70.2848 60.062 70.2935 60.0579 70.3112 60.0493C70.3119 60.049 70.3126 60.0486 70.3134 60.0482C70.3285 60.0408 70.3518 60.0295 70.3767 60.0204Z" fill="#669933"/>
<path fill-rule="evenodd" clip-rule="evenodd" d="M76.3456 56L76.8925 56.5305L81 60.452L80.8888 60.5599C80.8555 60.5922 80.8329 60.6145 80.8174 60.6345C80.8136 60.6394 80.8112 60.6431 80.8096 60.6456V61L76 56.3352L76.3456 56Z" fill="#669933"/>
<path fill-rule="evenodd" clip-rule="evenodd" d="M68.2941 61.0195C68.3167 61.0101 68.348 61 68.3848 61H68.473L71 66.9381H70.7861C70.7855 66.9383 70.7848 66.9386 70.7839 66.939C70.7773 66.9415 70.7724 66.9438 70.7649 66.9473C70.7592 66.95 70.752 66.9533 70.7414 66.958C70.699 66.9768 70.6383 67 70.5574 67H70.4682L68 61.0618H68.211C68.2168 61.0594 68.2241 61.0555 68.2389 61.0472C68.2396 61.0469 68.2402 61.0466 68.2408 61.0462C68.2535 61.0391 68.2732 61.0282 68.2941 61.0195Z" fill="#669933"/>
<path fill-rule="evenodd" clip-rule="evenodd" d="M74.3193 57L79 62.6931L78.8848 62.8114C78.8532 62.8439 78.8115 62.8867 78.7673 62.9208C78.7232 62.9548 78.6518 63 78.5615 63H78.4811L74 57.4645V57.4008C74 57.3506 74.0132 57.3014 74.0428 57.2581C74.0689 57.2197 74.1013 57.1962 74.1192 57.1839C74.1355 57.1727 74.1466 57.1657 74.155 57.1605C74.1694 57.1514 74.1758 57.1474 74.1874 57.1355L74.3193 57Z" fill="#669933"/>
<path fill-rule="evenodd" clip-rule="evenodd" d="M59 64H59.4875L60 70H59.4485L59 64Z" fill="#669933"/>
<path fill-rule="evenodd" clip-rule="evenodd" d="M62 63H62.3113L63 70H62.6887L62 63Z" fill="#669933"/>
<path fill-rule="evenodd" clip-rule="evenodd" d="M64.2626 63.0184C64.2858 63.0095 64.3179 63 64.3556 63H64.4652L66 68.8395L65.9417 68.899C65.842 69.0007 65.7281 69.0003 65.6292 69C65.6235 68.9999 65.6179 68.9999 65.6123 68.9999H65.5016L64 63.0583H64.1774C64.1833 63.056 64.1908 63.0523 64.2061 63.0445C64.2067 63.0442 64.2073 63.0439 64.208 63.0435C64.221 63.0369 64.2412 63.0266 64.2626 63.0184Z" fill="#669933"/>
<path fill-rule="evenodd" clip-rule="evenodd" d="M66.3278 62.0189C66.3547 62.0098 66.3921 62 66.4359 62H66.5513L69 67.94H68.761C68.7247 67.94 68.6973 67.9475 68.6648 67.9593C68.6616 67.9604 68.6572 67.9621 68.6521 67.964C68.6376 67.9694 68.6172 67.977 68.6013 67.9821C68.5761 67.9901 68.539 68 68.4952 68H68.3787L66 62.06H66.2287C66.2356 62.0576 66.2443 62.0538 66.262 62.0458C66.2628 62.0455 66.2635 62.0452 66.2643 62.0448C66.2795 62.038 66.3029 62.0274 66.3278 62.0189Z" fill="#669933"/>
<path fill-rule="evenodd" clip-rule="evenodd" d="M72.2916 59L76 64.4339L75.8427 64.5154C75.801 64.537 75.7684 64.5582 75.7449 64.5754V65L72 59.4162V59.3671C72 59.3225 72.0116 59.2788 72.0377 59.2402C72.0607 59.2061 72.0892 59.1852 72.105 59.1743C72.1194 59.1644 72.1291 59.1582 72.1365 59.1535C72.1492 59.1454 72.1548 59.1418 72.165 59.1313L72.2916 59Z" fill="#669933"/>
<path fill-rule="evenodd" clip-rule="evenodd" d="M77.4856 11H77.5686C77.658 11 77.7287 11.0378 77.7724 11.0662C77.8162 11.0946 77.8575 11.1304 77.8888 11.1575L78 11.2538L74.645 14.8852L73.6437 16H73.5606C73.5158 16 73.4776 15.9904 73.45 15.9815C73.4245 15.9732 73.4006 15.9628 73.3851 15.9561L73.3828 15.9551C73.3646 15.9472 73.3557 15.9435 73.3487 15.9412H73L74.107 14.7614L77.4856 11Z" fill="#669933"/>
<path d="M53.3737 13.2876C56.7703 11.1503 61.1734 11.7161 63.8152 14.6706C65.7651 16.8079 66.3941 19.3852 65.7651 22.214C65.2619 24.54 64.6958 26.8659 64.1297 29.1289C63.941 29.8204 63.5007 30.1347 62.8088 29.9461C58.1541 28.8774 53.5624 27.8088 48.9077 26.7401C48.2158 26.6144 47.9013 26.1744 48.0271 25.5457C48.5933 22.9684 49.1593 20.4539 49.8512 17.8765C50.4173 15.8649 51.6754 14.3563 53.3737 13.2876ZM54.1914 14.5448C51.0464 16.4936 50.1028 20.7054 52.0528 23.7856C54.0027 26.9287 58.1541 27.8717 61.2992 25.9229C64.4442 23.9742 65.4506 19.8253 63.4378 16.6822C61.5508 13.6019 57.3364 12.5961 54.1914 14.5448ZM51.1722 24.4142C50.9206 23.9742 50.2915 23.8485 49.8512 24.0999C49.4109 24.3514 49.2222 24.98 49.5367 25.42C49.7883 25.86 50.4174 25.9858 50.8577 25.7343C51.298 25.4829 51.4867 24.8543 51.1722 24.4142ZM61.8653 26.9287C61.425 27.1802 61.2992 27.8088 61.5508 28.2488C61.8024 28.6888 62.4314 28.8146 62.8717 28.5631C63.312 28.2488 63.4378 27.6831 63.1233 27.243C62.8717 26.7401 62.3056 26.6144 61.8653 26.9287Z" fill="#003333"/>
<path d="M37.1359 21.4925C37.1957 21.1343 37.2554 20.7761 37.3152 20.4179C37.5544 20.4776 37.7337 20.5373 38.0326 20.597C37.9131 20.8955 37.7935 21.194 37.6739 21.5522C37.8533 21.6119 37.9728 21.6119 38.1522 21.6716C38.212 21.3134 38.2718 20.9552 38.3315 20.597C38.6304 20.6567 38.8098 20.7164 39.0489 20.7761C38.9891 21.0746 38.8696 21.3731 38.75 21.7313C38.9294 21.791 39.0489 21.791 39.2283 21.8507C39.2881 21.4925 39.2881 21.1343 39.3478 20.7761C39.6468 20.8358 39.8261 20.8955 40.0054 20.9552C39.9457 21.2537 39.8261 21.5522 39.7065 21.9702C39.8859 22.0299 40.0054 22.0298 40.1848 22.0298C40.2446 21.6716 40.3044 21.3134 40.3642 21.0149C40.6033 21.0746 40.7826 21.1343 41.0217 21.1343C40.9022 21.4925 40.8424 21.791 40.7228 22.1493C40.9022 22.209 41.0217 22.2089 41.2011 22.2089C41.2609 21.8507 41.3206 21.5523 41.3804 21.194C41.6196 21.2537 41.8587 21.3134 42.0381 21.3731C41.9185 21.6716 41.8587 22.0299 41.7391 22.3881C41.9185 22.3881 42.0381 22.4478 42.2174 22.4478C42.2772 22.0896 42.337 21.791 42.3967 21.4328C42.6359 21.4925 42.8152 21.5522 43.0544 21.6119C42.9348 21.9104 42.875 22.209 42.7555 22.5672C42.9348 22.6269 43.0544 22.6269 43.2337 22.6866C43.2935 22.3284 43.2935 21.9701 43.3533 21.6119C43.6522 21.6716 43.8315 21.7314 44.0109 21.7911C43.9511 22.0896 43.8315 22.4477 43.712 22.806C43.8913 22.8657 44.0109 22.8657 44.1902 22.8657C44.25 22.5075 44.3098 22.1493 44.3696 21.7911C44.6087 21.8508 44.7881 21.9105 45.0272 21.9702C44.9076 22.3284 44.7881 22.6866 44.7283 23.0448C44.9076 23.1045 45.0272 23.1045 45.1468 23.1045C45.2065 22.7463 45.2663 22.3881 45.3261 22.0298C45.5652 22.0895 45.8044 22.1492 46.0435 22.2089C45.9239 22.5672 45.8043 22.8657 45.6848 23.2836C45.9239 23.2836 46.0435 23.2836 46.2228 23.2836C46.2826 23.0448 46.2826 22.6866 46.3424 22.3284C46.6413 22.3881 46.8207 22.4478 47 22.4478C46.8804 22.9851 46.7609 23.5224 46.6413 24C43.1142 23.1642 39.5272 22.3284 36 21.4925C36.1196 21.0149 36.2392 20.5373 36.3587 20C36.4783 20.0597 36.6576 20.0597 36.837 20.1194C36.7174 20.4179 36.6576 20.7761 36.5381 21.1343C36.837 21.4328 36.9565 21.4925 37.1359 21.4925Z" fill="#003333"/>
<path d="M35.6 19C35.75 19.0536 35.9 19.0536 36 19.1071C35.8 20.0714 35.6 21.0357 35.4 22C35.25 21.9464 35.1 21.8929 35 21.8929C35.2 20.875 35.4 19.9107 35.6 19Z" fill="#003333"/>
<path d="M60.373 25.103C57.7481 26.8582 54.4074 25.9481 52.7967 23.1528C51.2456 20.3575 52.0211 16.6521 54.5863 14.897C57.1515 13.1418 60.6116 14.0519 62.1627 16.8472C63.7734 19.7075 62.9978 23.4129 60.373 25.103ZM59.8957 24.1929C62.0434 22.7628 62.6399 19.7075 61.3275 17.4322C60.015 15.157 57.2112 14.4419 55.1233 15.8721C53.0353 17.3022 52.3791 20.3575 53.6915 22.6328C55.0039 24.973 57.8078 25.6231 59.8957 24.1929Z" fill="#003333"/>
<path d="M56.0577 20.9483C56.5192 21.1218 56.8654 21.2952 57.2115 21.353C57.5577 21.4108 57.7885 21.2374 57.9038 20.8905C57.9615 20.5437 57.8461 20.3124 57.5 20.1968C57.3269 20.139 57.0961 20.0812 56.9231 20.0812C56.5769 20.0234 56.4615 19.9077 56.5192 19.5609C56.6923 19.0406 56.8654 18.5203 56.9808 18C57.6731 18.1734 58.3077 18.2891 59 18.4625C58.9423 18.6359 58.8846 18.8094 58.8269 19.0406C58.423 18.925 58.0192 18.8094 57.5577 18.6937C57.4423 18.9828 57.3846 19.214 57.3269 19.4453C57.5 19.4453 57.6154 19.5031 57.7308 19.5031C58.3654 19.6187 58.7692 20.0812 58.7692 20.6593C58.7692 21.353 58.3077 21.8733 57.6731 21.9889C57.0961 22.0467 56.6346 21.8733 56.1154 21.5842C56.0577 21.5264 56 21.353 56 21.2952C56 21.2374 56 21.064 56.0577 20.9483Z" fill="#003333"/>
<path fill-rule="evenodd" clip-rule="evenodd" d="M24.5843 46C28.2218 60.6115 41.5793 71.408 57.5 71.408C73.4206 71.408 86.7782 60.6115 90.4157 46L91 46.1409C87.2981 61.0109 73.7043 72 57.5 72C41.2956 72 27.7019 61.0109 24 46.1409L24.5843 46Z" fill="#003333"/>
<path fill-rule="evenodd" clip-rule="evenodd" d="M57.6236 3.58901C42.0762 3.58901 28.8975 13.456 24.5859 27L24 26.8276C28.3887 13.0416 41.8009 3 57.6236 3C73.1994 3 86.3645 12.6858 91 26.1735L90.4182 26.3583C85.8633 13.1049 72.9275 3.58901 57.6236 3.58901Z" fill="#003333"/>
<path fill-rule="evenodd" clip-rule="evenodd" d="M57.5307 1.22468C41.3493 1.22468 27.657 12.0648 23.1524 27L22 26.6412C26.6559 11.2042 40.8066 0 57.5307 0C74.1941 0 88.2831 11.1422 93 26.454L91.8497 26.8198C87.2856 12.0043 73.6521 1.22468 57.5307 1.22468Z" fill="#003333"/>
<path fill-rule="evenodd" clip-rule="evenodd" d="M57.4079 73.7904C74.8704 73.7904 89.4153 61.4187 92.813 45L94 45.2447C90.4889 62.2116 75.4592 75 57.4079 75C39.6661 75 24.7582 62.6429 21 46.0419L22.1823 45.7753C25.8177 61.834 40.242 73.7904 57.4079 73.7904Z" fill="#003333"/>
<path d="M113 32H3V59H113V32Z" fill="#E3E3E2"/>
<path d="M18.8751 38.9174L23.278 33H24.5551V41.4364H22.8888V35.6497L18.5467 41.4364H17.2088V33H18.8751V38.9174Z" fill="#003333"/>
<path d="M25.9029 35.8874C26.2191 35.6181 26.5637 35.42 26.9367 35.2933C27.3097 35.1665 27.6908 35.1032 28.08 35.1032C28.3638 35.1032 28.6314 35.1388 28.8827 35.2101C29.1341 35.2735 29.353 35.3725 29.5395 35.5072C29.7341 35.6418 29.8841 35.8121 29.9895 36.0181C30.1031 36.2161 30.1598 36.4459 30.1598 36.7073C30.1598 37.04 30.0666 37.3331 29.8801 37.5865C29.7017 37.8321 29.4463 37.9866 29.1138 38.05C29.576 38.1371 29.9247 38.3232 30.1598 38.6084C30.395 38.8857 30.5125 39.2342 30.5125 39.6541C30.5125 39.9392 30.4477 40.2006 30.3179 40.4383C30.1963 40.668 30.026 40.866 29.8071 41.0324C29.5882 41.1987 29.3246 41.3295 29.0165 41.4245C28.7165 41.5116 28.3881 41.5552 28.0313 41.5552C27.5367 41.5552 27.0867 41.476 26.6813 41.3176C26.2758 41.1591 25.9475 40.9373 25.6961 40.6522L26.4745 39.6303C26.6367 39.8283 26.8353 39.9788 27.0705 40.0818C27.3137 40.1769 27.5773 40.2244 27.8611 40.2244C28.2016 40.2244 28.4651 40.1571 28.6516 40.0224C28.8462 39.8877 28.9435 39.6937 28.9435 39.4402C28.9435 39.155 28.8341 38.9372 28.6151 38.7867C28.4043 38.6282 28.0435 38.549 27.5327 38.549H27.034V37.6341H27.5205C27.9097 37.6341 28.2057 37.5628 28.4084 37.4202C28.6192 37.2697 28.7246 37.0796 28.7246 36.8498C28.7246 36.6518 28.6476 36.5013 28.4935 36.3983C28.3476 36.2953 28.153 36.2439 27.9097 36.2439C27.6989 36.2439 27.4759 36.2914 27.2408 36.3864C27.0056 36.4736 26.7907 36.6043 26.5961 36.7786L25.9029 35.8874Z" fill="#003333"/>
<path d="M35.8937 36.529H33.23V41.4364H31.6124V35.2101H35.8937V36.529Z" fill="#003333"/>
<path d="M39.4132 41.5552C38.8942 41.5552 38.428 41.4681 38.0145 41.2938C37.6009 41.1195 37.2482 40.8858 36.9563 40.5928C36.6725 40.2917 36.4536 39.9472 36.2995 39.559C36.1455 39.1708 36.0684 38.7629 36.0684 38.3351C36.0684 37.8994 36.1455 37.4875 36.2995 37.0994C36.4536 36.7112 36.6725 36.3706 36.9563 36.0775C37.2482 35.7765 37.6009 35.5388 38.0145 35.3646C38.428 35.1903 38.8942 35.1032 39.4132 35.1032C39.9321 35.1032 40.3943 35.1903 40.7997 35.3646C41.2133 35.5388 41.5619 35.7765 41.8457 36.0775C42.1376 36.3706 42.3606 36.7112 42.5147 37.0994C42.6687 37.4875 42.7458 37.8994 42.7458 38.3351C42.7458 38.7629 42.6687 39.1708 42.5147 39.559C42.3606 39.9472 42.1417 40.2917 41.8579 40.5928C41.5741 40.8858 41.2254 41.1195 40.8119 41.2938C40.3984 41.4681 39.9321 41.5552 39.4132 41.5552ZM37.7469 38.3351C37.7469 38.6124 37.7874 38.8659 37.8685 39.0956C37.9577 39.3174 38.0753 39.5115 38.2212 39.6778C38.3753 39.8442 38.5537 39.9749 38.7564 40.0699C38.9591 40.1571 39.178 40.2006 39.4132 40.2006C39.6483 40.2006 39.8673 40.1571 40.07 40.0699C40.2727 39.9749 40.447 39.8442 40.593 39.6778C40.747 39.5115 40.8646 39.3134 40.9457 39.0837C41.0349 38.854 41.0795 38.6005 41.0795 38.3232C41.0795 38.0539 41.0349 37.8044 40.9457 37.5747C40.8646 37.3449 40.747 37.1469 40.593 36.9806C40.447 36.8142 40.2727 36.6875 40.07 36.6003C39.8673 36.5053 39.6483 36.4577 39.4132 36.4577C39.178 36.4577 38.9591 36.5053 38.7564 36.6003C38.5537 36.6954 38.3753 36.8261 38.2212 36.9924C38.0753 37.1588 37.9577 37.3568 37.8685 37.5865C37.7874 37.8163 37.7469 38.0658 37.7469 38.3351Z" fill="#003333"/>
<path d="M46.6142 41.4364H44.9965V36.5884H43.0018V35.2101H48.5967V36.5884H46.6142V41.4364Z" fill="#003333"/>
<path d="M52.1817 41.5552C51.6627 41.5552 51.1965 41.4681 50.7829 41.2938C50.3694 41.1195 50.0167 40.8858 49.7248 40.5928C49.441 40.2917 49.2221 39.9472 49.068 39.559C48.9139 39.1708 48.8369 38.7629 48.8369 38.3351C48.8369 37.8994 48.9139 37.4875 49.068 37.0994C49.2221 36.7112 49.441 36.3706 49.7248 36.0775C50.0167 35.7765 50.3694 35.5388 50.7829 35.3646C51.1965 35.1903 51.6627 35.1032 52.1817 35.1032C52.7006 35.1032 53.1628 35.1903 53.5682 35.3646C53.9817 35.5388 54.3304 35.7765 54.6142 36.0775C54.9061 36.3706 55.1291 36.7112 55.2832 37.0994C55.4372 37.4875 55.5143 37.8994 55.5143 38.3351C55.5143 38.7629 55.4372 39.1708 55.2832 39.559C55.1291 39.9472 54.9102 40.2917 54.6264 40.5928C54.3426 40.8858 53.9939 41.1195 53.5804 41.2938C53.1668 41.4681 52.7006 41.5552 52.1817 41.5552ZM50.5154 38.3351C50.5154 38.6124 50.5559 38.8659 50.637 39.0956C50.7262 39.3174 50.8438 39.5115 50.9897 39.6778C51.1438 39.8442 51.3222 39.9749 51.5249 40.0699C51.7276 40.1571 51.9465 40.2006 52.1817 40.2006C52.4168 40.2006 52.6357 40.1571 52.8385 40.0699C53.0412 39.9749 53.2155 39.8442 53.3614 39.6778C53.5155 39.5115 53.6331 39.3134 53.7142 39.0837C53.8034 38.854 53.848 38.6005 53.848 38.3232C53.848 38.0539 53.8034 37.8044 53.7142 37.5747C53.6331 37.3449 53.5155 37.1469 53.3614 36.9806C53.2155 36.8142 53.0412 36.6875 52.8385 36.6003C52.6357 36.5053 52.4168 36.4577 52.1817 36.4577C51.9465 36.4577 51.7276 36.5053 51.5249 36.6003C51.3222 36.6954 51.1438 36.8261 50.9897 36.9924C50.8438 37.1588 50.7262 37.3568 50.637 37.5865C50.5559 37.8163 50.5154 38.0658 50.5154 38.3351Z" fill="#003333"/>
<path d="M60.4212 35.2101C60.6564 35.2101 60.8713 35.2537 61.0659 35.3408C61.2605 35.42 61.4267 35.5309 61.5645 35.6735C61.7105 35.8161 61.82 35.9824 61.8929 36.1726C61.974 36.3627 62.0146 36.5647 62.0146 36.7786C62.0146 37.0479 61.9416 37.3212 61.7956 37.5984C61.6497 37.8678 61.4105 38.0698 61.078 38.2044C61.451 38.3074 61.7429 38.4856 61.9537 38.7391C62.1727 38.9847 62.2821 39.3214 62.2821 39.7491C62.2821 40.3195 62.0794 40.7433 61.674 41.0205C61.2686 41.2978 60.7091 41.4364 59.9955 41.4364H56.6508V35.2101H60.4212ZM59.655 37.8123C59.882 37.8123 60.0645 37.7489 60.2023 37.6222C60.3402 37.4954 60.4091 37.3133 60.4091 37.0756C60.4091 36.8776 60.3483 36.7112 60.2266 36.5766C60.1131 36.434 59.9388 36.3627 59.7036 36.3627H58.2684V37.8123H59.655ZM59.8739 40.2838C60.1091 40.2838 60.2956 40.2086 60.4334 40.0581C60.5794 39.9075 60.6523 39.7253 60.6523 39.5115C60.6523 39.2897 60.5834 39.1075 60.4456 38.9649C60.3077 38.8144 60.1212 38.7391 59.8861 38.7391H58.2684V40.2838H59.8739Z" fill="#003333"/>
<path d="M62.6331 40.0818C62.8682 40.066 63.0588 40.0184 63.2047 39.9392C63.3588 39.86 63.4844 39.7135 63.5817 39.4996C63.6872 39.2857 63.7723 38.9926 63.8372 38.6203C63.9101 38.2401 63.9831 37.745 64.0561 37.135L64.275 35.2101H68.7387V41.4364H67.1211V36.5409H65.6981L65.5764 37.4796C65.4791 38.2638 65.3616 38.9134 65.2237 39.4283C65.0859 39.9353 64.9075 40.3393 64.6886 40.6403C64.4777 40.9413 64.2142 41.1552 63.898 41.2819C63.5817 41.4007 63.1925 41.4681 62.7304 41.4839L62.6331 40.0818Z" fill="#003333"/>
<path d="M73.2054 41.5552C72.6946 41.5552 72.2324 41.472 71.8189 41.3057C71.4053 41.1314 71.0526 40.8977 70.7607 40.6046C70.4688 40.3115 70.2418 39.9709 70.0796 39.5828C69.9255 39.1946 69.8485 38.7867 69.8485 38.3589C69.8485 37.9153 69.9255 37.4994 70.0796 37.1113C70.2337 36.7152 70.4566 36.3706 70.7485 36.0775C71.0404 35.7765 71.3932 35.5388 71.8067 35.3646C72.2283 35.1903 72.6986 35.1032 73.2176 35.1032C73.7365 35.1032 74.1987 35.1903 74.6041 35.3646C75.0177 35.5388 75.3663 35.7725 75.6501 36.0656C75.942 36.3587 76.161 36.6993 76.3069 37.0875C76.461 37.4756 76.538 37.8796 76.538 38.2995C76.538 38.4025 76.5339 38.5015 76.5258 38.5965C76.5258 38.6916 76.5177 38.7708 76.5015 38.8342H71.5756C71.5999 39.0797 71.6607 39.2976 71.758 39.4877C71.8553 39.6778 71.981 39.8402 72.1351 39.9749C72.2891 40.1095 72.4635 40.2125 72.6581 40.2838C72.8527 40.3551 73.0554 40.3908 73.2662 40.3908C73.5906 40.3908 73.8946 40.3155 74.1784 40.165C74.4703 40.0066 74.669 39.8006 74.7744 39.5471L76.1731 39.9273C75.938 40.4026 75.5609 40.7948 75.042 41.1037C74.5312 41.4047 73.919 41.5552 73.2054 41.5552ZM74.8595 37.8004C74.819 37.3331 74.6406 36.9607 74.3244 36.6835C74.0163 36.3983 73.6392 36.2557 73.1933 36.2557C72.9743 36.2557 72.7676 36.2953 72.573 36.3746C72.3865 36.4459 72.2202 36.5488 72.0743 36.6835C71.9283 36.8182 71.8067 36.9806 71.7094 37.1707C71.6202 37.3608 71.5675 37.5707 71.5513 37.8004H74.8595Z" fill="#003333"/>
<path d="M79.1728 37.5628H81.7027V35.2101H83.3203V41.4364H81.7027V38.9174H79.1728V41.4364H77.5552V35.2101H79.1728V37.5628Z" fill="#003333"/>
<path d="M86.4538 39.1669L89.4702 35.2101H90.6743V41.4364H89.0567V37.5865L86.0768 41.4364H84.8362V35.2101H86.4538V39.1669Z" fill="#003333"/>
<path d="M95.1435 41.5552C94.6326 41.5552 94.1704 41.472 93.7569 41.3057C93.3434 41.1314 92.9906 40.8977 92.6987 40.6046C92.4068 40.3115 92.1798 39.9709 92.0176 39.5828C91.8636 39.1946 91.7865 38.7867 91.7865 38.3589C91.7865 37.9153 91.8636 37.4994 92.0176 37.1113C92.1717 36.7152 92.3947 36.3706 92.6866 36.0775C92.9785 35.7765 93.3312 35.5388 93.7447 35.3646C94.1664 35.1903 94.6367 35.1032 95.1556 35.1032C95.6746 35.1032 96.1367 35.1903 96.5422 35.3646C96.9557 35.5388 97.3044 35.7725 97.5882 36.0656C97.8801 36.3587 98.099 36.6993 98.2449 37.0875C98.399 37.4756 98.476 37.8796 98.476 38.2995C98.476 38.4025 98.472 38.5015 98.4639 38.5965C98.4639 38.6916 98.4558 38.7708 98.4395 38.8342H93.5136C93.538 39.0797 93.5988 39.2976 93.6961 39.4877C93.7934 39.6778 93.9191 39.8402 94.0731 39.9749C94.2272 40.1095 94.4015 40.2125 94.5961 40.2838C94.7907 40.3551 94.9934 40.3908 95.2043 40.3908C95.5286 40.3908 95.8327 40.3155 96.1165 40.165C96.4084 40.0066 96.607 39.8006 96.7124 39.5471L98.1112 39.9273C97.876 40.4026 97.499 40.7948 96.98 41.1037C96.4692 41.4047 95.857 41.5552 95.1435 41.5552ZM96.7976 37.8004C96.757 37.3331 96.5787 36.9607 96.2624 36.6835C95.9543 36.3983 95.5773 36.2557 95.1313 36.2557C94.9124 36.2557 94.7056 36.2953 94.511 36.3746C94.3245 36.4459 94.1583 36.5488 94.0123 36.6835C93.8664 36.8182 93.7447 36.9806 93.6474 37.1707C93.5582 37.3608 93.5055 37.5707 93.4893 37.8004H96.7976Z" fill="#003333"/>
<path d="M5.58269 55.4691H3.96505V50.6211H1.61764V55.4691H0V49.2428H5.58269V55.4691Z" fill="#003333"/>
<path d="M10.0219 55.5879C9.50295 55.5879 9.03672 55.5008 8.62318 55.3265C8.20965 55.1522 7.85693 54.9185 7.56503 54.6254C7.28123 54.3244 7.0623 53.9798 6.90824 53.5917C6.75418 53.2035 6.67715 52.7956 6.67715 52.3678C6.67715 51.9321 6.75418 51.5202 6.90824 51.1321C7.0623 50.7439 7.28123 50.4033 7.56503 50.1102C7.85693 49.8092 8.20965 49.5715 8.62318 49.3973C9.03672 49.223 9.50295 49.1358 10.0219 49.1358C10.5408 49.1358 11.003 49.223 11.4084 49.3973C11.822 49.5715 12.1706 49.8092 12.4544 50.1102C12.7463 50.4033 12.9693 50.7439 13.1234 51.1321C13.2775 51.5202 13.3545 51.9321 13.3545 52.3678C13.3545 52.7956 13.2775 53.2035 13.1234 53.5917C12.9693 53.9798 12.7504 54.3244 12.4666 54.6254C12.1828 54.9185 11.8341 55.1522 11.4206 55.3265C11.0071 55.5008 10.5408 55.5879 10.0219 55.5879ZM8.3556 52.3678C8.3556 52.6451 8.39615 52.8986 8.47723 53.1283C8.56642 53.3501 8.684 53.5442 8.82995 53.7105C8.98401 53.8769 9.1624 54.0076 9.36511 54.1026C9.56782 54.1898 9.78675 54.2333 10.0219 54.2333C10.257 54.2333 10.476 54.1898 10.6787 54.1026C10.8814 54.0076 11.0557 53.8769 11.2017 53.7105C11.3557 53.5442 11.4733 53.3461 11.5544 53.1164C11.6436 52.8867 11.6882 52.6332 11.6882 52.3559C11.6882 52.0866 11.6436 51.8371 11.5544 51.6074C11.4733 51.3776 11.3557 51.1796 11.2017 51.0132C11.0557 50.8469 10.8814 50.7201 10.6787 50.633C10.476 50.538 10.257 50.4904 10.0219 50.4904C9.78675 50.4904 9.56782 50.538 9.36511 50.633C9.1624 50.7281 8.98401 50.8588 8.82995 51.0251C8.684 51.1915 8.56642 51.3895 8.47723 51.6192C8.39615 51.849 8.3556 52.0985 8.3556 52.3678Z" fill="#003333"/>
<path d="M18.2615 49.2428C18.4966 49.2428 18.7115 49.2864 18.9061 49.3735C19.1007 49.4527 19.2669 49.5636 19.4048 49.7062C19.5507 49.8488 19.6602 50.0151 19.7332 50.2052C19.8143 50.3954 19.8548 50.5974 19.8548 50.8112C19.8548 51.0806 19.7818 51.3539 19.6359 51.6311C19.4899 51.9004 19.2507 52.1024 18.9183 52.2371C19.2913 52.3401 19.5832 52.5183 19.794 52.7718C20.0129 53.0174 20.1224 53.354 20.1224 53.7818C20.1224 54.3522 19.9197 54.776 19.5142 55.0532C19.1088 55.3305 18.5493 55.4691 17.8358 55.4691H14.491V49.2428H18.2615ZM17.4952 51.845C17.7223 51.845 17.9047 51.7816 18.0426 51.6549C18.1804 51.5281 18.2493 51.3459 18.2493 51.1083C18.2493 50.9103 18.1885 50.7439 18.0669 50.6092C17.9534 50.4667 17.779 50.3954 17.5439 50.3954H16.1087V51.845H17.4952ZM17.7142 54.3165C17.9493 54.3165 18.1358 54.2412 18.2736 54.0907C18.4196 53.9402 18.4926 53.758 18.4926 53.5442C18.4926 53.3224 18.4236 53.1402 18.2858 52.9976C18.148 52.8471 17.9615 52.7718 17.7263 52.7718H16.1087V54.3165H17.7142Z" fill="#003333"/>
<path d="M22.9641 55.5879C22.656 55.5879 22.3681 55.5404 22.1005 55.4453C21.8329 55.3423 21.6019 55.2037 21.4073 55.0294C21.2127 54.8472 21.0586 54.6373 20.9451 54.3997C20.8397 54.162 20.787 53.9006 20.787 53.6155C20.787 53.3224 20.8518 53.053 20.9816 52.8075C21.1194 52.554 21.3059 52.3401 21.541 52.1658C21.7843 51.9915 22.0721 51.8569 22.4046 51.7618C22.737 51.6588 23.1019 51.6074 23.4992 51.6074C23.783 51.6074 24.0587 51.6311 24.3263 51.6786C24.602 51.7262 24.8452 51.7935 25.0561 51.8806V51.5242C25.0561 51.1123 24.9344 50.7954 24.6912 50.5736C24.456 50.3518 24.1033 50.2409 23.633 50.2409C23.2925 50.2409 22.96 50.3003 22.6357 50.4191C22.3113 50.538 21.9789 50.7122 21.6383 50.9419L21.1397 49.932C21.9586 49.4012 22.8425 49.1358 23.7911 49.1358C24.7074 49.1358 25.4169 49.3576 25.9196 49.8013C26.4305 50.2369 26.6859 50.8707 26.6859 51.7024V53.6392C26.6859 53.8056 26.7143 53.9244 26.771 53.9957C26.8359 54.067 26.9372 54.1066 27.0751 54.1145V55.4691C26.7994 55.5245 26.5602 55.5523 26.3575 55.5523C26.0494 55.5523 25.8102 55.4849 25.6399 55.3503C25.4777 55.2156 25.3764 55.0374 25.3358 54.8156L25.2993 54.471C25.0155 54.8354 24.6709 55.1126 24.2655 55.3027C23.8601 55.4928 23.4263 55.5879 22.9641 55.5879ZM23.4263 54.4234C23.702 54.4234 23.9614 54.3759 24.2047 54.2809C24.456 54.1858 24.6506 54.0591 24.7885 53.9006C24.9669 53.766 25.0561 53.6155 25.0561 53.4491V52.7362C24.8615 52.6649 24.6507 52.6094 24.4236 52.5698C24.1966 52.5223 23.9776 52.4985 23.7668 52.4985C23.3452 52.4985 23.0006 52.5936 22.733 52.7837C22.4654 52.9659 22.3316 53.1996 22.3316 53.4847C22.3316 53.7541 22.437 53.9798 22.6479 54.162C22.8587 54.3363 23.1181 54.4234 23.4263 54.4234Z" fill="#003333"/>
<path d="M28.257 55.4691V49.2428H29.8746V54.0907H31.6504V49.2428H33.268V54.0907H35.0438V49.2428H36.6614V55.4691H28.257Z" fill="#003333"/>
<path d="M39.8162 53.1996L42.8326 49.2428H44.0367V55.4691H42.419V51.6192L39.4392 55.4691H38.1986V49.2428H39.8162V53.1996Z" fill="#003333"/>
<path d="M49.1383 52.5579L51.0235 49.2428H52.6898V55.4691H51.133V51.7262L49.5153 54.5304H48.7491L47.1314 51.7262V55.4691H45.5746V49.2428H47.253L49.1383 52.5579Z" fill="#003333"/>
<path d="M60.9625 55.5879C60.4598 55.5879 60.0219 55.481 59.649 55.2671C59.276 55.0453 58.9841 54.7482 58.7732 54.3759V58H57.1434V49.2428H58.5665V50.3122C58.8016 49.9478 59.1057 49.6626 59.4787 49.4567C59.8517 49.2428 60.2814 49.1358 60.7679 49.1358C61.1977 49.1358 61.595 49.223 61.9599 49.3973C62.3248 49.5636 62.6369 49.7933 62.8964 50.0864C63.164 50.3716 63.3708 50.7122 63.5167 51.1083C63.6708 51.4965 63.7478 51.9084 63.7478 52.3441C63.7478 52.7956 63.6789 53.2194 63.541 53.6155C63.4032 54.0115 63.2086 54.3561 62.9572 54.6492C62.714 54.9423 62.4221 55.172 62.0815 55.3384C61.7409 55.5047 61.368 55.5879 60.9625 55.5879ZM60.4152 54.2333C60.6585 54.2333 60.8814 54.1818 61.0842 54.0789C61.295 53.9759 61.4734 53.8373 61.6193 53.663C61.7653 53.4887 61.8788 53.2867 61.9599 53.057C62.041 52.8273 62.0815 52.5896 62.0815 52.3441C62.0815 52.0826 62.0369 51.841 61.9477 51.6192C61.8585 51.3895 61.7328 51.1915 61.5707 51.0251C61.4166 50.8588 61.2301 50.7281 61.0112 50.633C60.8004 50.538 60.5693 50.4904 60.3179 50.4904C60.1638 50.4904 60.0057 50.5181 59.8436 50.5736C59.6814 50.6211 59.5314 50.6924 59.3935 50.7875C59.2557 50.8825 59.13 50.9934 59.0165 51.1202C58.9111 51.2469 58.83 51.3856 58.7732 51.5361V52.9976C58.9192 53.354 59.1422 53.6511 59.4422 53.8887C59.7422 54.1185 60.0665 54.2333 60.4152 54.2333Z" fill="#003333"/>
<path d="M66.5789 55.5879C66.2707 55.5879 65.9829 55.5404 65.7153 55.4453C65.4477 55.3423 65.2166 55.2037 65.022 55.0294C64.8274 54.8472 64.6734 54.6373 64.5598 54.3997C64.4544 54.162 64.4017 53.9006 64.4017 53.6155C64.4017 53.3224 64.4666 53.053 64.5963 52.8075C64.7342 52.554 64.9207 52.3401 65.1558 52.1658C65.3991 51.9915 65.6869 51.8569 66.0194 51.7618C66.3518 51.6588 66.7167 51.6074 67.114 51.6074C67.3978 51.6074 67.6735 51.6311 67.9411 51.6786C68.2168 51.7262 68.46 51.7935 68.6709 51.8806V51.5242C68.6709 51.1123 68.5492 50.7954 68.306 50.5736C68.0708 50.3518 67.7181 50.2409 67.2478 50.2409C66.9073 50.2409 66.5748 50.3003 66.2505 50.4191C65.9261 50.538 65.5937 50.7122 65.2531 50.9419L64.7545 49.932C65.5734 49.4012 66.4572 49.1358 67.4059 49.1358C68.3222 49.1358 69.0317 49.3576 69.5344 49.8013C70.0452 50.2369 70.3007 50.8707 70.3007 51.7024V53.6392C70.3007 53.8056 70.329 53.9244 70.3858 53.9957C70.4507 54.067 70.552 54.1066 70.6899 54.1145V55.4691C70.4142 55.5245 70.175 55.5523 69.9723 55.5523C69.6641 55.5523 69.4249 55.4849 69.2547 55.3503C69.0925 55.2156 68.9911 55.0374 68.9506 54.8156L68.9141 54.471C68.6303 54.8354 68.2857 55.1126 67.8803 55.3027C67.4749 55.4928 67.041 55.5879 66.5789 55.5879ZM67.041 54.4234C67.3167 54.4234 67.5762 54.3759 67.8195 54.2809C68.0708 54.1858 68.2654 54.0591 68.4033 53.9006C68.5817 53.766 68.6709 53.6155 68.6709 53.4491V52.7362C68.4762 52.6649 68.2654 52.6094 68.0384 52.5698C67.8114 52.5223 67.5924 52.4985 67.3816 52.4985C66.96 52.4985 66.6153 52.5936 66.3478 52.7837C66.0802 52.9659 65.9464 53.1996 65.9464 53.4847C65.9464 53.7541 66.0518 53.9798 66.2626 54.162C66.4734 54.3363 66.7329 54.4234 67.041 54.4234Z" fill="#003333"/>
<path d="M71.519 49.9201C71.8353 49.6507 72.1799 49.4527 72.5528 49.326C72.9258 49.1992 73.3069 49.1358 73.6962 49.1358C73.9799 49.1358 74.2475 49.1715 74.4989 49.2428C74.7502 49.3062 74.9692 49.4052 75.1557 49.5398C75.3503 49.6745 75.5003 49.8448 75.6057 50.0508C75.7192 50.2488 75.776 50.4785 75.776 50.7399C75.776 51.0727 75.6827 51.3657 75.4962 51.6192C75.3178 51.8648 75.0624 52.0193 74.73 52.0826C75.1922 52.1698 75.5408 52.3559 75.776 52.6411C76.0111 52.9184 76.1287 53.2669 76.1287 53.6867C76.1287 53.9719 76.0638 54.2333 75.9341 54.471C75.8125 54.7007 75.6422 54.8987 75.4233 55.0651C75.2043 55.2314 74.9408 55.3621 74.6327 55.4572C74.3327 55.5443 74.0043 55.5879 73.6475 55.5879C73.1529 55.5879 72.7029 55.5087 72.2974 55.3503C71.892 55.1918 71.5636 54.97 71.3123 54.6849L72.0907 53.663C72.2528 53.861 72.4515 54.0115 72.6866 54.1145C72.9299 54.2096 73.1934 54.2571 73.4772 54.2571C73.8178 54.2571 74.0813 54.1898 74.2678 54.0551C74.4624 53.9204 74.5597 53.7264 74.5597 53.4729C74.5597 53.1877 74.4502 52.9699 74.2313 52.8193C74.0205 52.6609 73.6597 52.5817 73.1488 52.5817H72.6502V51.6668H73.1367C73.5259 51.6668 73.8218 51.5955 74.0245 51.4529C74.2354 51.3024 74.3408 51.1123 74.3408 50.8825C74.3408 50.6845 74.2637 50.534 74.1097 50.431C73.9637 50.328 73.7691 50.2765 73.5259 50.2765C73.315 50.2765 73.0921 50.3241 72.8569 50.4191C72.6218 50.5063 72.4069 50.637 72.2123 50.8112L71.519 49.9201Z" fill="#003333"/>
<path d="M80.7922 52.5579L82.6775 49.2428H84.3438V55.4691H82.7869V51.7262L81.1693 54.5304H80.403L78.7854 51.7262V55.4691H77.2286V49.2428H78.907L80.7922 52.5579Z" fill="#003333"/>
<path d="M88.8067 55.5879C88.2959 55.5879 87.8337 55.5047 87.4202 55.3384C87.0066 55.1641 86.6539 54.9304 86.362 54.6373C86.0701 54.3442 85.8431 54.0036 85.6809 53.6155C85.5268 53.2273 85.4498 52.8193 85.4498 52.3916C85.4498 51.948 85.5268 51.5321 85.6809 51.1439C85.835 50.7479 86.0579 50.4033 86.3498 50.1102C86.6417 49.8092 86.9945 49.5715 87.408 49.3973C87.8297 49.223 88.2999 49.1358 88.8189 49.1358C89.3378 49.1358 89.8 49.223 90.2054 49.3973C90.619 49.5715 90.9676 49.8052 91.2514 50.0983C91.5433 50.3914 91.7623 50.732 91.9082 51.1202C92.0623 51.5083 92.1393 51.9123 92.1393 52.3322C92.1393 52.4352 92.1352 52.5342 92.1271 52.6292C92.1271 52.7243 92.119 52.8035 92.1028 52.8669H87.1769C87.2012 53.1124 87.262 53.3303 87.3594 53.5204C87.4566 53.7105 87.5823 53.8729 87.7364 54.0076C87.8904 54.1422 88.0648 54.2452 88.2594 54.3165C88.454 54.3878 88.6567 54.4234 88.8675 54.4234C89.1919 54.4234 89.4959 54.3482 89.7797 54.1977C90.0716 54.0393 90.2703 53.8333 90.3757 53.5798L91.7744 53.96C91.5393 54.4353 91.1622 54.8274 90.6433 55.1364C90.1325 55.4374 89.5203 55.5879 88.8067 55.5879ZM90.4608 51.8331C90.4203 51.3657 90.2419 50.9934 89.9257 50.7162C89.6176 50.431 89.2405 50.2884 88.7946 50.2884C88.5756 50.2884 88.3689 50.328 88.1743 50.4072C87.9878 50.4785 87.8215 50.5815 87.6756 50.7162C87.5296 50.8509 87.408 51.0132 87.3107 51.2034C87.2215 51.3935 87.1688 51.6034 87.1526 51.8331H90.4608Z" fill="#003333"/>
<path d="M96.9756 55.5879C96.4729 55.5879 96.035 55.481 95.662 55.2671C95.289 55.0453 94.9971 54.7482 94.7863 54.3759V58H93.1565V49.2428H94.5796V50.3122C94.8147 49.9478 95.1188 49.6626 95.4918 49.4567C95.8647 49.2428 96.2945 49.1358 96.781 49.1358C97.2108 49.1358 97.6081 49.223 97.9729 49.3973C98.3378 49.5636 98.65 49.7933 98.9095 50.0864C99.1771 50.3716 99.3838 50.7122 99.5298 51.1083C99.6838 51.4965 99.7609 51.9084 99.7609 52.3441C99.7609 52.7956 99.6919 53.2194 99.5541 53.6155C99.4163 54.0115 99.2217 54.3561 98.9703 54.6492C98.727 54.9423 98.4351 55.172 98.0946 55.3384C97.754 55.5047 97.381 55.5879 96.9756 55.5879ZM96.4283 54.2333C96.6715 54.2333 96.8945 54.1818 97.0972 54.0789C97.3081 53.9759 97.4864 53.8373 97.6324 53.663C97.7784 53.4887 97.8919 53.2867 97.9729 53.057C98.054 52.8273 98.0946 52.5896 98.0946 52.3441C98.0946 52.0826 98.05 51.841 97.9608 51.6192C97.8716 51.3895 97.7459 51.1915 97.5837 51.0251C97.4297 50.8588 97.2432 50.7281 97.0243 50.633C96.8134 50.538 96.5823 50.4904 96.331 50.4904C96.1769 50.4904 96.0188 50.5181 95.8566 50.5736C95.6945 50.6211 95.5445 50.6924 95.4066 50.7875C95.2688 50.8825 95.1431 50.9934 95.0296 51.1202C94.9242 51.2469 94.8431 51.3856 94.7863 51.5361V52.9976C94.9323 53.354 95.1553 53.6511 95.4553 53.8887C95.7553 54.1185 96.0796 54.2333 96.4283 54.2333Z" fill="#003333"/>
<path d="M102.592 55.5879C102.284 55.5879 101.996 55.5404 101.728 55.4453C101.461 55.3423 101.23 55.2037 101.035 55.0294C100.84 54.8472 100.686 54.6373 100.573 54.3997C100.468 54.162 100.415 53.9006 100.415 53.6155C100.415 53.3224 100.48 53.053 100.609 52.8075C100.747 52.554 100.934 52.3401 101.169 52.1658C101.412 51.9915 101.7 51.8569 102.032 51.7618C102.365 51.6588 102.73 51.6074 103.127 51.6074C103.411 51.6074 103.687 51.6311 103.954 51.6786C104.23 51.7262 104.473 51.7935 104.684 51.8806V51.5242C104.684 51.1123 104.562 50.7954 104.319 50.5736C104.084 50.3518 103.731 50.2409 103.261 50.2409C102.92 50.2409 102.588 50.3003 102.264 50.4191C101.939 50.538 101.607 50.7122 101.266 50.9419L100.768 49.932C101.586 49.4012 102.47 49.1358 103.419 49.1358C104.335 49.1358 105.045 49.3576 105.547 49.8013C106.058 50.2369 106.314 50.8707 106.314 51.7024V53.6392C106.314 53.8056 106.342 53.9244 106.399 53.9957C106.464 54.067 106.565 54.1066 106.703 54.1145V55.4691C106.427 55.5245 106.188 55.5523 105.985 55.5523C105.677 55.5523 105.438 55.4849 105.268 55.3503C105.106 55.2156 105.004 55.0374 104.964 54.8156L104.927 54.471C104.643 54.8354 104.299 55.1126 103.893 55.3027C103.488 55.4928 103.054 55.5879 102.592 55.5879ZM103.054 54.4234C103.33 54.4234 103.589 54.3759 103.833 54.2809C104.084 54.1858 104.278 54.0591 104.416 53.9006C104.595 53.766 104.684 53.6155 104.684 53.4491V52.7362C104.489 52.6649 104.278 52.6094 104.051 52.5698C103.824 52.5223 103.605 52.4985 103.395 52.4985C102.973 52.4985 102.628 52.5936 102.361 52.7837C102.093 52.9659 101.959 53.1996 101.959 53.4847C101.959 53.7541 102.065 53.9798 102.276 54.162C102.487 54.3363 102.746 54.4234 103.054 54.4234Z" fill="#003333"/>
<path d="M111.448 52.5579L113.334 49.2428H115V55.4691H113.443V51.7262L111.826 54.5304H111.059L109.442 51.7262V55.4691H107.885V49.2428H109.563L111.448 52.5579Z" fill="#003333"/>
</svg>
