<svg width="112" height="79" viewBox="0 0 112 79" fill="none" xmlns="http://www.w3.org/2000/svg">
<path d="M87.6785 37.5872L87.7518 37.6333H87.8383H110.833C111.312 37.6333 111.7 38.0214 111.7 38.5V77.7C111.7 78.1786 111.312 78.5667 110.833 78.5667H1.16667C0.688062 78.5667 0.3 78.1786 0.3 77.7V38.5C0.3 38.0214 0.688061 37.6333 1.16667 37.6333H24.1617H24.2482L24.3215 37.5872L53.1848 19.414L53.6491 19.1218L53.1525 18.8886C50.8043 17.786 49.3035 15.4271 49.3 12.833C49.3002 12.3545 49.6882 11.9667 50.1667 11.9667C50.6453 11.9667 51.0333 12.3547 51.0333 12.8333C51.0333 15.5763 53.257 17.8 56 17.8C58.743 17.8 60.9667 15.5763 60.9667 12.8333C60.9667 10.0903 58.743 7.86667 56 7.86667C55.5214 7.86667 55.1333 7.47861 55.1333 7V2.33333V2.03333H54.8333H51.3333C50.8547 2.03333 50.4667 1.64527 50.4667 1.16667C50.4667 0.68806 50.8547 0.3 51.3333 0.3H60.6667C61.1453 0.3 61.5333 0.68806 61.5333 1.16667C61.5333 1.64527 61.1453 2.03333 60.6667 2.03333H57.1667H56.8667V2.33333V5.93017V6.18322L57.1161 6.22587C59.2718 6.59451 61.1121 7.99217 62.0456 9.96991L62.3169 9.84185L62.0456 9.96992C63.6253 13.3161 62.1932 17.3092 58.8469 18.8889L58.3521 19.1225L58.8152 19.414L87.6785 37.5872ZM56.1598 19.7918L56 19.6912L55.8402 19.7918L28.3838 37.0795L27.5042 37.6333H28.5437H83.4563H84.4958L83.6162 37.0795L56.1598 19.7918ZM109.667 76.8333H109.967V76.5333V39.6667V39.3667H109.667H2.33333H2.03333V39.6667V76.5333V76.8333H2.33333H109.667Z" fill="#003333" stroke="#EDEDEC" stroke-width="0.6"/>
<line x1="5.5" y1="43" x2="5.5" y2="74" stroke="#669933"/>
<line opacity="0.1" x1="15.5" y1="43" x2="15.5" y2="74" stroke="#669933"/>
<line opacity="0.1" x1="25.5" y1="43" x2="25.5" y2="74" stroke="#669933"/>
<line opacity="0.1" x1="35.5" y1="43" x2="35.5" y2="74" stroke="#669933"/>
<line opacity="0.1" x1="45.5" y1="43" x2="45.5" y2="74" stroke="#669933"/>
<line opacity="0.1" x1="55.5" y1="43" x2="55.5" y2="74" stroke="#669933"/>
<line opacity="0.1" x1="65.5" y1="43" x2="65.5" y2="74" stroke="#669933"/>
<line opacity="0.1" x1="75.5" y1="43" x2="75.5" y2="74" stroke="#669933"/>
<line opacity="0.1" x1="85.5" y1="43" x2="85.5" y2="74" stroke="#669933"/>
<line opacity="0.1" x1="95.5" y1="43" x2="95.5" y2="74" stroke="#669933"/>
<line x1="105.5" y1="43" x2="105.5" y2="74" stroke="#669933"/>
<path d="M26.2657 55.055C25.6937 55.055 25.173 54.945 24.7037 54.725C24.2417 54.505 23.842 54.208 23.5047 53.834C23.1747 53.4527 22.918 53.0273 22.7347 52.558C22.5513 52.0813 22.4597 51.5937 22.4597 51.095C22.4597 50.5743 22.555 50.0793 22.7457 49.61C22.9363 49.1333 23.204 48.7117 23.5487 48.345C23.8933 47.971 24.2967 47.6777 24.7587 47.465C25.228 47.245 25.7413 47.135 26.2987 47.135C26.8633 47.135 27.3767 47.2487 27.8387 47.476C28.308 47.7033 28.7077 48.0077 29.0377 48.389C29.375 48.7703 29.6317 49.1993 29.8077 49.676C29.991 50.1453 30.0827 50.6257 30.0827 51.117C30.0827 51.6303 29.9873 52.1253 29.7967 52.602C29.606 53.0713 29.3383 53.493 28.9937 53.867C28.6563 54.2337 28.253 54.5233 27.7837 54.736C27.3217 54.9487 26.8157 55.055 26.2657 55.055ZM23.9997 51.095C23.9997 51.5497 24.0877 51.975 24.2637 52.371C24.447 52.767 24.7073 53.0897 25.0447 53.339C25.3893 53.5883 25.8 53.713 26.2767 53.713C26.768 53.713 27.1823 53.5847 27.5197 53.328C27.857 53.0713 28.1137 52.7413 28.2897 52.338C28.4657 51.9347 28.5537 51.5203 28.5537 51.095C28.5537 50.6403 28.462 50.215 28.2787 49.819C28.0953 49.423 27.8313 49.104 27.4867 48.862C27.1493 48.6127 26.746 48.488 26.2767 48.488C25.7853 48.488 25.371 48.6163 25.0337 48.873C24.6963 49.1297 24.4397 49.4597 24.2637 49.863C24.0877 50.259 23.9997 50.6697 23.9997 51.095ZM32.4351 55V50.523H30.6091V49.236H35.7461V50.523H33.9091V55H32.4351ZM36.5719 55V49.236H41.7419V55H40.2679V50.523H38.0459V55H36.5719ZM46.5356 55.11C46.081 55.11 45.685 55.0073 45.3476 54.802C45.0103 54.5967 44.7463 54.3253 44.5556 53.988V57.343H43.0816V49.236H44.3686V50.226C44.5813 49.8887 44.8563 49.6247 45.1936 49.434C45.5383 49.236 45.927 49.137 46.3596 49.137C46.8803 49.137 47.3423 49.2727 47.7456 49.544C48.149 49.808 48.468 50.1673 48.7026 50.622C48.9373 51.0693 49.0546 51.5643 49.0546 52.107C49.0546 52.6717 48.9446 53.1813 48.7246 53.636C48.512 54.0833 48.215 54.4427 47.8336 54.714C47.4596 54.978 47.027 55.11 46.5356 55.11ZM46.0406 53.856C46.3413 53.856 46.6016 53.7753 46.8216 53.614C47.049 53.4453 47.225 53.229 47.3496 52.965C47.4816 52.6937 47.5476 52.4077 47.5476 52.107C47.5476 51.7843 47.478 51.4947 47.3386 51.238C47.1993 50.974 47.0086 50.7687 46.7666 50.622C46.532 50.468 46.2606 50.391 45.9526 50.391C45.674 50.391 45.3953 50.4827 45.1166 50.666C44.838 50.8493 44.651 51.0803 44.5556 51.359V52.712C44.6876 53.0347 44.8893 53.306 45.1606 53.526C45.432 53.746 45.7253 53.856 46.0406 53.856ZM49.6573 53.295C49.6573 52.921 49.76 52.5947 49.9653 52.316C50.178 52.03 50.4713 51.81 50.8453 51.656C51.2193 51.502 51.6483 51.425 52.1323 51.425C52.3743 51.425 52.62 51.447 52.8693 51.491C53.1187 51.5277 53.335 51.5827 53.5183 51.656V51.348C53.5183 50.9813 53.4083 50.699 53.1883 50.501C52.9757 50.303 52.6567 50.204 52.2313 50.204C51.916 50.204 51.6153 50.259 51.3293 50.369C51.0433 50.479 50.7427 50.6403 50.4273 50.853L49.9543 49.885C50.3357 49.6357 50.7243 49.4487 51.1203 49.324C51.5237 49.1993 51.9453 49.137 52.3853 49.137C53.2067 49.137 53.8447 49.3423 54.2993 49.753C54.7613 50.1637 54.9923 50.7503 54.9923 51.513V53.35C54.9923 53.5113 55.018 53.625 55.0693 53.691C55.1207 53.7497 55.2123 53.7863 55.3443 53.801V55C55.2123 55.0293 55.0913 55.0477 54.9813 55.055C54.8787 55.0697 54.7907 55.077 54.7173 55.077C54.424 55.077 54.2003 55.011 54.0463 54.879C53.8923 54.747 53.8007 54.5857 53.7713 54.395L53.7383 54.098C53.4817 54.428 53.1663 54.681 52.7923 54.857C52.4257 55.0257 52.048 55.11 51.6593 55.11C51.2707 55.11 50.926 55.033 50.6253 54.879C50.3247 54.7177 50.0863 54.5013 49.9103 54.23C49.7417 53.9513 49.6573 53.6397 49.6573 53.295ZM53.2433 53.592C53.4267 53.416 53.5183 53.2473 53.5183 53.086V52.503C53.137 52.349 52.752 52.272 52.3633 52.272C51.9747 52.272 51.6593 52.3563 51.4173 52.525C51.1753 52.6863 51.0543 52.9027 51.0543 53.174C51.0543 53.394 51.1423 53.592 51.3183 53.768C51.4943 53.944 51.7473 54.032 52.0773 54.032C52.2973 54.032 52.51 53.9917 52.7153 53.911C52.928 53.8303 53.104 53.724 53.2433 53.592ZM56.3697 55V49.236H59.5817C59.9777 49.236 60.2967 49.302 60.5387 49.434C60.7881 49.566 60.9714 49.7383 61.0887 49.951C61.2061 50.1637 61.2647 50.391 61.2647 50.633C61.2647 50.9557 61.1914 51.238 61.0447 51.48C60.8981 51.722 60.6781 51.909 60.3847 52.041C60.7221 52.129 60.9971 52.2903 61.2097 52.525C61.4224 52.7597 61.5287 53.064 61.5287 53.438C61.5287 53.9807 61.3381 54.3767 60.9567 54.626C60.5827 54.8753 60.0731 55 59.4277 55H56.3697ZM57.7667 51.634H59.2077C59.4057 51.634 59.5671 51.5643 59.6917 51.425C59.8164 51.2783 59.8787 51.106 59.8787 50.908C59.8787 50.7173 59.8164 50.5597 59.6917 50.435C59.5744 50.303 59.4167 50.237 59.2187 50.237H57.7667V51.634ZM57.7667 53.999H59.3837C59.5891 53.999 59.7577 53.9293 59.8897 53.79C60.0291 53.6507 60.0987 53.4783 60.0987 53.273C60.0987 53.0677 60.0327 52.899 59.9007 52.767C59.7687 52.6277 59.6001 52.558 59.3947 52.558H57.7667V53.999ZM62.6002 55V49.236H64.0742V51.414H64.5692L66.1312 49.236H67.7372L65.6912 52.019L67.9572 55H66.2742L64.5472 52.712H64.0742V55H62.6002ZM68.4239 53.295C68.4239 52.921 68.5266 52.5947 68.7319 52.316C68.9446 52.03 69.2379 51.81 69.6119 51.656C69.9859 51.502 70.4149 51.425 70.8989 51.425C71.1409 51.425 71.3866 51.447 71.6359 51.491C71.8853 51.5277 72.1016 51.5827 72.2849 51.656V51.348C72.2849 50.9813 72.1749 50.699 71.9549 50.501C71.7423 50.303 71.4233 50.204 70.9979 50.204C70.6826 50.204 70.3819 50.259 70.0959 50.369C69.8099 50.479 69.5093 50.6403 69.1939 50.853L68.7209 49.885C69.1023 49.6357 69.4909 49.4487 69.8869 49.324C70.2903 49.1993 70.7119 49.137 71.1519 49.137C71.9733 49.137 72.6113 49.3423 73.0659 49.753C73.5279 50.1637 73.7589 50.7503 73.7589 51.513V53.35C73.7589 53.5113 73.7846 53.625 73.8359 53.691C73.8873 53.7497 73.9789 53.7863 74.1109 53.801V55C73.9789 55.0293 73.8579 55.0477 73.7479 55.055C73.6453 55.0697 73.5573 55.077 73.4839 55.077C73.1906 55.077 72.9669 55.011 72.8129 54.879C72.6589 54.747 72.5673 54.5857 72.5379 54.395L72.5049 54.098C72.2483 54.428 71.9329 54.681 71.5589 54.857C71.1923 55.0257 70.8146 55.11 70.4259 55.11C70.0373 55.11 69.6926 55.033 69.3919 54.879C69.0913 54.7177 68.8529 54.5013 68.6769 54.23C68.5083 53.9513 68.4239 53.6397 68.4239 53.295ZM72.0099 53.592C72.1933 53.416 72.2849 53.2473 72.2849 53.086V52.503C71.9036 52.349 71.5186 52.272 71.1299 52.272C70.7413 52.272 70.4259 52.3563 70.1839 52.525C69.9419 52.6863 69.8209 52.9027 69.8209 53.174C69.8209 53.394 69.9089 53.592 70.0849 53.768C70.2609 53.944 70.5139 54.032 70.8439 54.032C71.0639 54.032 71.2766 53.9917 71.4819 53.911C71.6946 53.8303 71.8706 53.724 72.0099 53.592ZM79.8359 55.088C79.2199 55.088 78.7029 54.978 78.2849 54.758C77.8742 54.538 77.5552 54.2337 77.3279 53.845L78.5159 53.306C78.6406 53.4967 78.8019 53.647 78.9999 53.757C79.2052 53.8597 79.4582 53.911 79.7589 53.911C80.1036 53.911 80.3676 53.845 80.5509 53.713C80.7416 53.5737 80.8369 53.394 80.8369 53.174C80.8369 52.976 80.7599 52.8147 80.6059 52.69C80.4519 52.558 80.2246 52.492 79.9239 52.492H79.3299V51.579H79.9349C80.1402 51.579 80.3016 51.5203 80.4189 51.403C80.5436 51.2857 80.6059 51.1317 80.6059 50.941C80.6059 50.7503 80.5326 50.6 80.3859 50.49C80.2466 50.3727 80.0229 50.314 79.7149 50.314C79.4582 50.314 79.2456 50.3617 79.0769 50.457C78.9082 50.5523 78.7726 50.6953 78.6699 50.886L77.5589 50.292C77.7642 49.9327 78.0576 49.6503 78.4389 49.445C78.8276 49.2397 79.2786 49.137 79.7919 49.137C80.1952 49.137 80.5546 49.1993 80.8699 49.324C81.1926 49.4487 81.4456 49.632 81.6289 49.874C81.8122 50.1087 81.9039 50.3983 81.9039 50.743C81.9039 50.9923 81.8416 51.2343 81.7169 51.469C81.5996 51.7037 81.4052 51.876 81.1339 51.986C81.4859 52.0887 81.7499 52.2647 81.9259 52.514C82.1092 52.7633 82.2009 53.0567 82.2009 53.394C82.2009 53.7607 82.0982 54.0723 81.8929 54.329C81.6876 54.5783 81.4052 54.769 81.0459 54.901C80.6939 55.0257 80.2906 55.088 79.8359 55.088ZM82.8399 53.295C82.8399 52.921 82.9426 52.5947 83.1479 52.316C83.3606 52.03 83.6539 51.81 84.0279 51.656C84.4019 51.502 84.8309 51.425 85.3149 51.425C85.5569 51.425 85.8026 51.447 86.0519 51.491C86.3013 51.5277 86.5176 51.5827 86.7009 51.656V51.348C86.7009 50.9813 86.5909 50.699 86.3709 50.501C86.1583 50.303 85.8393 50.204 85.4139 50.204C85.0986 50.204 84.7979 50.259 84.5119 50.369C84.2259 50.479 83.9253 50.6403 83.6099 50.853L83.1369 49.885C83.5183 49.6357 83.9069 49.4487 84.3029 49.324C84.7063 49.1993 85.1279 49.137 85.5679 49.137C86.3893 49.137 87.0273 49.3423 87.4819 49.753C87.9439 50.1637 88.1749 50.7503 88.1749 51.513V53.35C88.1749 53.5113 88.2006 53.625 88.2519 53.691C88.3033 53.7497 88.3949 53.7863 88.5269 53.801V55C88.3949 55.0293 88.2739 55.0477 88.1639 55.055C88.0613 55.0697 87.9733 55.077 87.8999 55.077C87.6066 55.077 87.3829 55.011 87.2289 54.879C87.0749 54.747 86.9833 54.5857 86.9539 54.395L86.9209 54.098C86.6643 54.428 86.3489 54.681 85.9749 54.857C85.6083 55.0257 85.2306 55.11 84.8419 55.11C84.4533 55.11 84.1086 55.033 83.8079 54.879C83.5073 54.7177 83.2689 54.5013 83.0929 54.23C82.9243 53.9513 82.8399 53.6397 82.8399 53.295ZM86.4259 53.592C86.6093 53.416 86.7009 53.2473 86.7009 53.086V52.503C86.3196 52.349 85.9346 52.272 85.5459 52.272C85.1573 52.272 84.8419 52.3563 84.5999 52.525C84.3579 52.6863 84.2369 52.9027 84.2369 53.174C84.2369 53.394 84.3249 53.592 84.5009 53.768C84.6769 53.944 84.9299 54.032 85.2599 54.032C85.4799 54.032 85.6926 53.9917 85.8979 53.911C86.1106 53.8303 86.2866 53.724 86.4259 53.592ZM44.5966 69.397V67.758H41.3846V66.449L45.0696 61.719H46.0706V66.438H47.0386V67.758H46.0706V69.397H44.5966ZM42.8586 66.438H44.7616V63.952L42.8586 66.438ZM50.2893 69.397V66.713H50.4433C50.634 66.713 50.81 66.6397 50.9713 66.493C51.1326 66.3463 51.2646 66.0823 51.3673 65.701C51.4773 65.3197 51.5433 64.7697 51.5653 64.051L51.6313 62.236H55.9543V66.713H56.7573V69.397H55.4703V68H51.5873V69.397H50.2893ZM52.3023 66.713H54.4803V63.479H52.9183L52.8853 64.194C52.856 64.9273 52.7936 65.4883 52.6983 65.877C52.603 66.2657 52.471 66.5443 52.3023 66.713ZM57.7125 68V62.236H59.1865V64.436H61.5185V62.236H62.9925V68H61.5185V65.668H59.1865V68H57.7125ZM64.0324 68L65.4954 65.756C65.1434 65.6607 64.8684 65.4737 64.6704 65.195C64.4724 64.9163 64.3734 64.5497 64.3734 64.095C64.3734 63.5303 64.5641 63.0757 64.9454 62.731C65.3268 62.3863 65.8218 62.214 66.4304 62.214H69.1694V68H67.6954V66.009H66.9144L65.6494 68H64.0324ZM66.6064 64.953H67.6954V63.347H66.6614C66.3974 63.347 66.1884 63.4203 66.0344 63.567C65.8804 63.7063 65.8034 63.897 65.8034 64.139C65.8034 64.3737 65.8694 64.568 66.0014 64.722C66.1408 64.876 66.3424 64.953 66.6064 64.953Z" fill="#003333"/>
</svg>
