<svg width="1109" height="67" viewBox="0 0 1109 67" fill="none" xmlns="http://www.w3.org/2000/svg">
<path fill-rule="evenodd" clip-rule="evenodd" d="M618.771 67C614.9 67 612.442 62.7485 613.943 59.1805C617.2 51.4362 619 42.9283 619 34C619 24.7237 617.057 15.9012 613.555 7.91738C611.984 4.33585 614.443 0 618.354 0H1104C1106.76 0 1109 2.23857 1109 5V62C1109 64.7614 1106.76 67 1104 67H618.771ZM494.057 59.1805C495.558 62.7485 493.1 67 489.229 67H5C2.23856 67 0 64.7614 0 62V5C0 2.23857 2.23859 0 5 0H489.646C493.557 0 496.016 4.33585 494.445 7.91738C490.943 15.9012 489 24.7237 489 34C489 42.9283 490.8 51.4362 494.057 59.1805Z" fill="white"/>
</svg>
