<svg width="16" height="16" viewBox="0 0 16 16" fill="none" xmlns="http://www.w3.org/2000/svg">
<g clip-path="url(#clip0_187_2564)">
<path d="M8.43906 12.1385L15.8191 4.73802C16.0607 4.49555 16.0603 4.10299 15.8178 3.86093C15.5753 3.61906 15.1826 3.61968 14.9407 3.86218L7.99997 10.8222L1.05925 3.86193C0.817376 3.61946 0.424847 3.61884 0.182347 3.86068C0.0607853 3.98202 3.79453e-06 4.14099 3.78758e-06 4.29996C3.78065e-06 4.45852 0.060379 4.61686 0.181097 4.73799L7.56091 12.1385C7.6771 12.2553 7.83522 12.3208 7.99997 12.3208C8.16472 12.3208 8.32266 12.2551 8.43906 12.1385Z" fill="#669833"/>
</g>
<defs>
<clipPath id="clip0_187_2564">
<rect width="16" height="16" fill="white" transform="translate(16) rotate(90)"/>
</clipPath>
</defs>
</svg>
