<svg width="27" height="15" viewBox="0 0 27 15" fill="none" xmlns="http://www.w3.org/2000/svg">
<path d="M1.01562 0C0.454695 0 0 0.454695 0 1.01562V13.7109C0 14.2719 0.454695 14.7266 1.01562 14.7266C1.57655 14.7266 2.03125 14.2719 2.03125 13.7109V1.01562C2.03125 0.454695 1.57655 0 1.01562 0Z" fill="url(#paint0_linear_120_2240)"/>
<path d="M25.6445 0C25.0836 0 24.6289 0.454695 24.6289 1.01562V13.7109C24.6289 14.2719 25.0836 14.7266 25.6445 14.7266C26.2055 14.7266 26.6602 14.2719 26.6602 13.7109V1.01562C26.6602 0.454695 26.2055 0 25.6445 0Z" fill="url(#paint1_linear_120_2240)"/>
<path d="M17.8242 6.34764H4.6117L7.51989 3.46326C7.91817 3.06829 7.92081 2.42525 7.52578 2.02697C7.13091 1.62879 6.48781 1.62605 6.08948 2.02108L2.93282 5.15194C2.35143 5.72857 2.03125 6.49587 2.03125 7.31248C2.03125 8.1291 2.35143 8.8964 2.93282 9.47307L6.08948 12.6039C6.28753 12.8003 6.54611 12.8984 6.80464 12.8984C7.06596 12.8984 7.32723 12.7982 7.52578 12.598C7.92076 12.1997 7.91817 11.5567 7.51989 11.1617L4.71413 8.37889H17.8242C18.3851 8.37889 18.8398 7.92419 18.8398 7.36327C18.8398 6.80234 18.3851 6.34764 17.8242 6.34764Z" fill="url(#paint2_linear_120_2240)"/>
<path d="M23.7274 5.15191L20.5707 2.0211C20.1724 1.62607 19.5294 1.62876 19.1344 2.02699C18.7394 2.42526 18.742 3.06831 19.1403 3.46328L22.297 6.5941C22.4908 6.78646 22.5977 7.04163 22.5977 7.3125C22.5977 7.58337 22.4908 7.83854 22.297 8.03085L19.1403 11.1617C18.742 11.5567 18.7394 12.1997 19.1344 12.598C19.333 12.7982 19.5942 12.8984 19.8555 12.8984C20.114 12.8984 20.3727 12.8003 20.5707 12.6039L23.7274 9.47304C24.3088 8.89642 24.6289 8.12912 24.6289 7.3125C24.6289 6.49589 24.3088 5.72858 23.7274 5.15191Z" fill="url(#paint3_linear_120_2240)"/>
<defs>
<linearGradient id="paint0_linear_120_2240" x1="2.00342" y1="1.47267" x2="-0.0149657" y2="1.48025" gradientUnits="userSpaceOnUse">
<stop stop-color="#75D910"/>
<stop offset="1" stop-color="#669933"/>
</linearGradient>
<linearGradient id="paint1_linear_120_2240" x1="26.6323" y1="1.47267" x2="24.6139" y2="1.48025" gradientUnits="userSpaceOnUse">
<stop stop-color="#75D910"/>
<stop offset="1" stop-color="#669933"/>
</linearGradient>
<linearGradient id="paint2_linear_120_2240" x1="18.6096" y1="2.84376" x2="1.93516" y2="3.52683" gradientUnits="userSpaceOnUse">
<stop stop-color="#75D910"/>
<stop offset="1" stop-color="#669933"/>
</linearGradient>
<linearGradient id="paint3_linear_120_2240" x1="24.5496" y1="2.84376" x2="18.7983" y2="2.92491" gradientUnits="userSpaceOnUse">
<stop stop-color="#75D910"/>
<stop offset="1" stop-color="#669933"/>
</linearGradient>
</defs>
</svg>
