<svg width="11" height="11" viewBox="0 0 11 11" fill="#fff" xmlns="http://www.w3.org/2000/svg">
<g clip-path="url(#clip0_141_21)">
<path d="M5.80186 8.34473L10.8756 3.2569C11.0417 3.0902 11.0415 2.82032 10.8747 2.6539C10.7081 2.48761 10.438 2.48804 10.2717 2.65476L5.49998 7.43974L0.728238 2.65459C0.56195 2.48789 0.292086 2.48746 0.125367 2.65373C0.0417938 2.73715 5.70818e-06 2.84644 5.70341e-06 2.95573C5.69864e-06 3.06474 0.0415144 3.17361 0.124508 3.25688L5.19813 8.34473C5.27801 8.42501 5.38672 8.47007 5.49998 8.47007C5.61325 8.47007 5.72183 8.42488 5.80186 8.34473Z" fill="#fff"/>
</g>
<defs>
<clipPath id="clip0_141_21">
<rect width="11" height="11" fill="#fff" transform="translate(11) rotate(90)"/>
</clipPath>
</defs>
</svg>
