<svg width="16" height="27" viewBox="0 0 16 27" fill="none" xmlns="http://www.w3.org/2000/svg">
<path d="M15.6934 1.04883C15.6934 0.487898 15.2387 0.0332031 14.6777 0.0332031L1.98242 0.0332025C1.42149 0.0332025 0.966797 0.487898 0.966797 1.04883C0.966797 1.60976 1.42149 2.06445 1.98242 2.06445L14.6777 2.06445C15.2387 2.06445 15.6934 1.60976 15.6934 1.04883Z" fill="url(#paint0_linear_120_2257)"/>
<path d="M15.6934 25.6777C15.6934 25.1168 15.2387 24.6621 14.6777 24.6621L1.98242 24.6621C1.42149 24.6621 0.966797 25.1168 0.966797 25.6777C0.966797 26.2387 1.42149 26.6934 1.98242 26.6934L14.6777 26.6934C15.2387 26.6934 15.6934 26.2387 15.6934 25.6777Z" fill="url(#paint1_linear_120_2257)"/>
<path d="M9.34572 17.8574L9.34572 4.6449L12.2301 7.55309C12.6251 7.95137 13.2681 7.95401 13.6664 7.55898C14.0646 7.16411 14.0673 6.52102 13.6723 6.12269L10.5414 2.96602C9.96479 2.38463 9.19749 2.06445 8.38088 2.06445C7.56426 2.06445 6.79696 2.38463 6.22029 2.96602L3.08947 6.12269C2.89305 6.32073 2.79494 6.57931 2.79494 6.83784C2.79494 7.09916 2.89518 7.36043 3.09536 7.55898C3.49364 7.95396 4.13668 7.95137 4.53166 7.55309L7.31447 4.74733L7.31447 17.8574C7.31447 18.4184 7.76916 18.873 8.33009 18.873C8.89102 18.873 9.34572 18.4184 9.34572 17.8574Z" fill="url(#paint2_linear_120_2257)"/>
<path d="M10.5414 23.7606L13.6723 20.6039C14.0673 20.2056 14.0646 19.5626 13.6664 19.1676C13.2681 18.7726 12.6251 18.7752 12.2301 19.1735L9.09926 22.3302C8.9069 22.524 8.65172 22.6309 8.38086 22.6309C8.10999 22.6309 7.85481 22.524 7.66251 22.3302L4.53164 19.1735C4.13666 18.7752 3.49362 18.7726 3.09534 19.1676C2.89511 19.3662 2.79492 19.6274 2.79492 19.8887C2.79492 20.1472 2.89303 20.4059 3.08945 20.6039L6.22032 23.7606C6.79694 24.342 7.56424 24.6621 8.38086 24.6621C9.19747 24.6621 9.96477 24.342 10.5414 23.7606Z" fill="url(#paint3_linear_120_2257)"/>
<defs>
<linearGradient id="paint0_linear_120_2257" x1="14.2207" y1="2.03663" x2="14.2131" y2="0.0182373" gradientUnits="userSpaceOnUse">
<stop stop-color="#75D910"/>
<stop offset="1" stop-color="#669933"/>
</linearGradient>
<linearGradient id="paint1_linear_120_2257" x1="14.2207" y1="26.6655" x2="14.2131" y2="24.6471" gradientUnits="userSpaceOnUse">
<stop stop-color="#75D910"/>
<stop offset="1" stop-color="#669933"/>
</linearGradient>
<linearGradient id="paint2_linear_120_2257" x1="12.8496" y1="18.6428" x2="12.1665" y2="1.96836" gradientUnits="userSpaceOnUse">
<stop stop-color="#75D910"/>
<stop offset="1" stop-color="#669933"/>
</linearGradient>
<linearGradient id="paint3_linear_120_2257" x1="12.8496" y1="24.5828" x2="12.7685" y2="18.8315" gradientUnits="userSpaceOnUse">
<stop stop-color="#75D910"/>
<stop offset="1" stop-color="#669933"/>
</linearGradient>
</defs>
</svg>
