<svg width="103" height="101" viewBox="0 0 103 101" fill="none" xmlns="http://www.w3.org/2000/svg">
<circle cx="51.9635" cy="50.0486" r="49.2009" fill="white"/>
<path d="M70.1349 26.2832C75.7836 26.2973 79.9628 27.6604 82.6742 30.371C85.3021 32.9989 86.6161 36.4794 86.6161 40.8106C86.6161 46.4075 85.0341 50.6667 81.8709 53.5864C78.8044 56.4578 73.9862 57.8939 67.4164 57.8939H60.9916H60.7851L48.9559 74.9763H36.4552L48.2853 57.8939H48.2466L54.616 48.6953H62.0867C65.0047 48.6953 71.1649 48.596 73.1829 46.578C74.4485 45.3616 75.0813 43.682 75.0813 41.541C75.0813 39.7401 74.5461 38.3286 73.4756 37.3064C71.8707 35.7631 69.2401 35.4941 67.1237 35.481H63.7663L70.1349 26.2832Z" fill="#003333"/>
<path d="M16.787 74.9763L43.9338 35.7736H23.0545L24.2226 26.2832H63.0061L29.2877 74.9763H16.787Z" fill="#669933"/>
<path d="M51.7596 0C65.772 0 78.4713 5.63291 87.6743 14.7401C96.8791 23.8491 102.573 36.4306 102.573 50.3244C102.573 64.2181 96.8791 76.7988 87.6743 85.9086C78.4713 95.0159 65.772 100.649 51.7596 100.649C37.7472 100.649 25.0479 95.0159 15.8457 85.9086C6.64096 76.7988 0.946533 64.2181 0.946533 50.3244C0.946533 36.4306 6.64096 23.8491 15.8457 14.7401C25.0479 5.63291 37.7472 0 51.7596 0ZM82.1504 20.2948C74.3844 12.6097 63.6406 7.85654 51.7596 7.85654C39.8794 7.85654 29.1348 12.6097 21.3697 20.2948C13.6063 27.9773 8.80307 38.5945 8.80307 50.3244C8.80307 62.0534 13.6063 72.6706 21.3697 80.354C29.1348 88.0382 39.8794 92.7922 51.7596 92.7922C63.6406 92.7922 74.3844 88.0382 82.1504 80.354C89.9137 72.6706 94.7161 62.0534 94.7161 50.3244C94.7161 38.5945 89.9137 27.9773 82.1504 20.2948Z" fill="#003333"/>
</svg>
