<svg width="22" height="21" viewBox="0 0 22 21" fill="none" xmlns="http://www.w3.org/2000/svg">
<path d="M10.9997 14.1328C10.3847 14.1328 9.86914 14.6484 9.86914 15.2634C9.86914 15.8785 10.3847 16.394 10.9997 16.394C11.5922 16.394 12.1304 15.8785 12.1032 15.2906C12.1304 14.6438 11.6193 14.1328 10.9997 14.1328Z" fill="#FDBC14"/>
<path d="M21.4647 18.1395C22.1747 16.9139 22.1792 15.4532 21.4737 14.2321L14.3916 1.96726C13.6906 0.732636 12.4243 0 11.0043 0C9.5842 0 8.31792 0.737158 7.61694 1.96274L0.525755 14.2412C-0.179745 15.4758 -0.175223 16.9456 0.539323 18.1712C1.24482 19.3832 2.50658 20.1113 3.91759 20.1113H18.0638C19.4793 20.1113 20.7501 19.3741 21.4647 18.1395ZM19.927 17.2531C19.5336 17.9315 18.8371 18.334 18.0593 18.334H3.91306C3.14425 18.334 2.45232 17.9405 2.06791 17.2757C1.67898 16.6019 1.67446 15.7969 2.06339 15.1185L9.15457 2.84461C9.53898 2.17077 10.2264 1.7728 11.0043 1.7728C11.7776 1.7728 12.4695 2.17529 12.8539 2.84914L19.9406 15.123C20.3205 15.7833 20.316 16.5793 19.927 17.2531Z" fill="#FDBC14"/>
<path d="M10.7195 6.19598C10.1813 6.34974 9.84668 6.83817 9.84668 7.43061C9.87381 7.78788 9.89643 8.14968 9.92356 8.50695C10.0004 9.8682 10.0773 11.2023 10.1542 12.5636C10.1813 13.0249 10.5386 13.3595 10.9999 13.3595C11.4612 13.3595 11.823 13.0023 11.8456 12.5364C11.8456 12.2561 11.8456 11.9983 11.8727 11.7134C11.9225 10.8405 11.9767 9.9677 12.0265 9.09486C12.0536 8.52956 12.1034 7.96426 12.1305 7.39895C12.1305 7.19544 12.1034 7.01454 12.0265 6.83365C11.7959 6.32713 11.2577 6.06935 10.7195 6.19598Z" fill="#FDBC14"/>
</svg>
